<?xml version="1.0" encoding="UTF-8" standalone="no"?>
<!DOCTYPE svg PUBLIC "-//W3C//DTD SVG 1.1//EN" "http://www.w3.org/Graphics/SVG/1.1/DTD/svg11.dtd">
<svg version="1.1" xmlns="http://www.w3.org/2000/svg" xmlns:xlink="http://www.w3.org/1999/xlink" preserveAspectRatio="xMidYMid meet" viewBox="0 0 64 72" width="64" height="72"><defs><path d="M64 43.69C64 53.78 55.56 61.97 45.14 61.97C45.01 61.97 44.38 61.97 43.23 61.97C37.39 67.62 34.14 70.77 33.49 71.4C33.11 71.77 32.58 72 32 72C31.46 72 30.97 71.81 30.59 71.49C30.58 71.48 30.53 71.42 30.43 71.33L30.42 71.32L20.77 61.97C19.62 61.97 18.98 61.97 18.85 61.97C8.44 61.97 0 53.78 0 43.69C0 41.15 0 20.81 0 18.27C0 8.18 8.44 0 18.86 0C21.49 0 42.51 0 45.14 0C55.56 0 64 8.18 64 18.27C64 23.36 64 41.15 64 43.69Z" id="c47coFdvia"></path><path d="M33.67 43.05C33.67 43.05 33.83 44.36 34.18 44.65C34.53 44.94 35.75 45 35.75 45" id="aJBsFSynv"></path><path d="M15.89 37.83C15.89 37.83 15.38 39.2 15.5 39.78C15.62 40.36 16.82 40.88 16.82 40.88" id="f2mRZfuMDU"></path><path d="M47.33 34.5C47.39 34.66 53.43 35.93 53.92 36.24C54.41 36.56 51.66 36.61 47.58 36.67C43.49 36.72 47.33 34.5 47.33 34.5" id="c8iqVQtADU"></path><path d="M46.6 39.99C45.78 41.27 44.16 42.23 42.08 42.88C40.19 43.48 37.93 43.82 35.56 43.91C32.78 44.03 29.85 43.8 27.18 43.24C26.97 43.2 26.75 43.15 26.54 43.1C24.81 42.69 23.11 42.21 21.54 41.63C21.54 41.63 21.53 41.62 21.52 41.62C19.16 40.75 17.07 39.64 15.47 38.22C15.35 38.11 15.22 38 15.1 37.88C14.1 36.91 13.33 35.8 12.86 34.53C12.71 34.15 12.6 33.75 12.51 33.34C12.44 33.03 12.4 32.73 12.38 32.44C11.98 27.41 17.45 24.12 21.46 24.79C21.65 24.82 21.84 24.86 22.03 24.91C24.07 25.46 25.44 26.48 26.91 27.24C27.71 27.66 28.54 28.01 29.53 28.18C30.99 28.42 32.81 28.11 34.87 27.89C36.79 27.69 38.92 27.57 41.16 28.07C41.16 28.07 41.16 28.07 41.16 28.07C41.55 28.16 41.94 28.26 42.33 28.39C44.1 28.95 45.45 30.04 46.36 31.39C46.36 31.39 46.36 31.39 46.37 31.4C48.1 33.96 48.24 37.44 46.6 39.99" id="a1VM42VCfc"></path><path d="M21.46 26.14C22.28 26.02 23 26.19 23.15 27.01C23.25 27.57 22.76 28.07 22.25 28.43C21.69 28.83 21.05 29.15 20.37 29.38C19.92 29.53 19.41 29.63 18.98 29.45C18.57 29.27 18.35 28.84 18.37 28.43C18.4 28.03 18.62 27.66 18.91 27.34C19.28 26.93 20.44 26.3 21.46 26.14" id="a55zj6n4Co"></path><path d="M14.92 30.03C13.82 32.53 13.98 35.38 15.1 37.88C14.1 36.91 13.33 35.8 12.86 34.53C12.71 34.15 12.6 33.75 12.51 33.34C12.44 33.03 12.4 32.73 12.38 32.44C11.98 27.41 17.45 24.12 21.46 24.79C18.58 25.69 16.16 27.25 14.92 30.03" id="dbNhPVrCa"></path><path d="M36.24 34.32C35.5 38.36 31.72 42.89 27.18 43.24C26.97 43.2 26.75 43.15 26.54 43.1C24.81 42.69 23.11 42.21 21.54 41.63C23.1 41.99 24.78 41.77 28.24 37.56C31.72 33.34 31.23 29.23 29.53 28.18C30.98 28.42 32.81 28.11 34.87 27.89C36.27 29.24 36.74 31.57 36.24 34.32" id="a2pEIYWsdw"></path><path d="M42.08 42.88C40.19 43.48 37.93 43.82 35.56 43.91C43.85 39.63 44.03 30.13 41.16 28.07C41.55 28.16 41.94 28.26 42.33 28.39C44.1 28.95 45.45 30.04 46.36 31.39C46.36 31.39 46.36 31.39 46.37 31.4C47.71 34.5 48.06 39.46 42.08 42.88" id="aGu2MHa0m"></path><path d="M46.6 39.99C45.78 41.27 44.16 42.23 42.08 42.88C40.19 43.48 37.93 43.82 35.56 43.91C32.78 44.03 29.85 43.8 27.18 43.24C26.97 43.2 26.75 43.15 26.54 43.1C24.81 42.69 23.11 42.21 21.54 41.63C21.54 41.63 21.53 41.62 21.52 41.62C19.16 40.75 17.07 39.64 15.47 38.22C20.66 40.89 26.89 42 32.88 41.32C34.71 41.11 36.62 40.69 37.89 39.53C39.02 38.5 39.46 37.03 39.47 35.61C39.49 33.25 38.22 30.72 35.73 29.76C33.32 28.82 30.25 29.46 28.11 28.11C27.74 27.88 27.33 27.58 26.91 27.24C27.71 27.66 28.54 28.01 29.53 28.18C30.99 28.42 32.81 28.11 34.87 27.89C36.79 27.69 38.92 27.57 41.16 28.07C41.16 28.07 41.16 28.07 41.16 28.07C41.55 28.16 41.94 28.26 42.33 28.39C44.1 28.95 45.45 30.04 46.36 31.39C46.36 31.39 46.36 31.39 46.37 31.4C48.1 33.96 48.24 37.44 46.6 39.99" id="a3nsxAaIP"></path><path d="M35.75 43.05C35.75 43.05 35.9 44.36 36.25 44.65C36.6 44.94 37.82 45 37.82 45" id="c6OjF14my"></path><path d="M17.96 39.36C17.96 39.36 17.45 40.73 17.58 41.31C17.7 41.89 18.9 42.41 18.9 42.41" id="aE2vCB485"></path><path d="M14.53 28.76C14.53 28.76 13.55 31.92 14.89 32.08C16.23 32.24 16.66 29.13 16.66 29.13" id="d15oPg1WmD"></path><path d="M22.39 30.07C22.39 30.07 21.42 33.24 22.76 33.4C24.1 33.55 24.53 30.44 24.53 30.44" id="c1IUf8ify7"></path><path d="M18 30.42C18 30.42 17.7 31.56 18.73 31.74C19.77 31.92 19.83 30.65 19.83 30.65" id="b1JVZg1wZ0"></path><path d="M25.97 35.69C25.88 36.32 24.83 36.72 23.62 36.59C22.41 36.46 21.5 35.84 21.59 35.22C21.69 34.59 22.74 34.19 23.95 34.32C25.16 34.45 26.06 35.06 25.97 35.69" id="a3FPKqAgm9"></path><path d="M14.88 33.7C14.8 34.25 13.91 34.61 12.86 34.53C12.71 34.15 12.6 33.75 12.51 33.34C12.44 33.03 12.4 32.73 12.38 32.44C12.59 32.42 12.81 32.42 13.04 32.45C14.14 32.57 14.97 33.13 14.88 33.7" id="bHsOiU05"></path><path d="M50.26 28.6C44.47 32.71 32.98 31.59 33.55 28.76C33.56 28.73 33.56 28.69 33.57 28.66C34.48 24.44 38.8 17.78 46.54 17.18C46.8 17.16 47.06 17.15 47.31 17.15C54.45 17.1 55.86 24.62 50.26 28.6" id="dgNMBki3m"></path><path d="M50.26 28.6C44.47 32.71 32.98 31.59 33.55 28.76C33.56 28.73 33.56 28.69 33.57 28.66C33.97 29.43 34.95 29.91 35.93 30.01C36.95 30.1 37.97 29.86 38.94 29.57C40.51 29.09 42.02 28.46 43.46 27.74C46.64 26.14 49.75 23.63 49.79 20.45C49.81 19.4 49.42 18.29 48.47 17.65C48.13 17.41 47.73 17.25 47.31 17.15C54.45 17.1 55.86 24.62 50.26 28.6" id="a8omwabNu"></path><path d="M37.28 23.59C37.04 24 36.85 24.57 37.27 24.87C37.45 25 37.7 25.03 37.93 25.02C38.5 24.99 39.03 24.75 39.51 24.49C41.04 23.67 42.37 22.57 43.37 21.27C43.69 20.84 44 20.34 43.85 19.84C43.15 17.47 37.77 22.79 37.28 23.59" id="a2YGFi7Ial"></path><path d="M33.53 29.13C32.45 29.67 31.1 29.47 29.71 28.78C25.55 26.69 21.15 20.17 23.49 16.35C23.86 15.73 24.3 15.25 24.79 14.89C28.37 12.25 34.49 16.03 35.08 21.27C35.75 27.23 34.36 28.7 33.53 29.13" id="a1thJtUfbg"></path><path d="M24.94 18.67C24.6 19.12 24.54 19.69 24.58 20.23C24.7 21.73 25.53 23.14 26.67 24.27C26.93 24.53 27.22 24.79 27.6 24.92C27.97 25.05 28.44 25.02 28.71 24.77C28.94 24.56 28.99 24.26 29.02 23.97C29.12 22.78 27.26 15.68 24.94 18.67" id="b7kwmDH08"></path><path d="M33.53 29.13C32.45 29.67 31.1 29.47 29.71 28.78C30.04 28.77 30.36 28.73 30.64 28.6C31.4 28.26 31.67 27.46 31.79 26.73C32.29 23.92 31.7 20.96 30.14 18.45C29.18 16.9 27.72 15.43 25.74 14.99C25.43 14.92 25.11 14.89 24.79 14.89C28.37 12.25 34.49 16.03 35.08 21.27C35.75 27.23 34.36 28.7 33.53 29.13" id="a4mKpebhy2"></path><path d="M17.21 25.59C17.21 25.59 18.98 17.96 22.94 17.69" id="m8OWxnDL2"></path><path d="M23.2 19.06C24.06 19.11 23.87 17.7 22.96 17.69C22.04 17.68 22.59 19.03 23.2 19.06" id="cttiGBZZK"></path><path d="M22.76 25.83C22.76 25.83 25.78 18.5 29.75 18.73" id="gBXPXHYEg"></path><path d="M29.78 20.12C30.62 20.28 30.67 18.86 29.77 18.73C28.87 18.6 29.18 20.01 29.78 20.12" id="a2Suo1Id7Y"></path></defs><g><g><g><use xlink:href="#c47coFdvia" opacity="1" fill="#ffd666" fill-opacity="1"></use><g><use xlink:href="#c47coFdvia" opacity="1" fill-opacity="0" stroke="#000000" stroke-width="1" stroke-opacity="0"></use></g></g><g><g><use xlink:href="#aJBsFSynv" opacity="1" fill="#000000" fill-opacity="0"></use><g><use xlink:href="#aJBsFSynv" opacity="1" fill-opacity="0" stroke="#853918" stroke-width="0.92" stroke-opacity="1"></use></g></g><g><use xlink:href="#f2mRZfuMDU" opacity="1" fill="#000000" fill-opacity="0"></use><g><use xlink:href="#f2mRZfuMDU" opacity="1" fill-opacity="0" stroke="#853918" stroke-width="0.92" stroke-opacity="1"></use></g></g><g><use xlink:href="#c8iqVQtADU" opacity="1" fill="#a25c39" fill-opacity="1"></use><g><use xlink:href="#c8iqVQtADU" opacity="1" fill-opacity="0" stroke="#000000" stroke-width="1" stroke-opacity="0"></use></g></g><g><use xlink:href="#a1VM42VCfc" opacity="1" fill="#ffd94a" fill-opacity="1"></use><g><use xlink:href="#a1VM42VCfc" opacity="1" fill-opacity="0" stroke="#000000" stroke-width="1" stroke-opacity="0"></use></g></g><g><use xlink:href="#a55zj6n4Co" opacity="1" fill="#faffa6" fill-opacity="1"></use><g><use xlink:href="#a55zj6n4Co" opacity="1" fill-opacity="0" stroke="#000000" stroke-width="1" stroke-opacity="0"></use></g></g><g><use xlink:href="#dbNhPVrCa" opacity="1" fill="#faffa6" fill-opacity="1"></use><g><use xlink:href="#dbNhPVrCa" opacity="1" fill-opacity="0" stroke="#000000" stroke-width="1" stroke-opacity="0"></use></g></g><g><use xlink:href="#a2pEIYWsdw" opacity="1" fill="#a25c39" fill-opacity="1"></use><g><use xlink:href="#a2pEIYWsdw" opacity="1" fill-opacity="0" stroke="#000000" stroke-width="1" stroke-opacity="0"></use></g></g><g><use xlink:href="#aGu2MHa0m" opacity="1" fill="#a25c39" fill-opacity="1"></use><g><use xlink:href="#aGu2MHa0m" opacity="1" fill-opacity="0" stroke="#000000" stroke-width="1" stroke-opacity="0"></use></g></g><g><use xlink:href="#a3nsxAaIP" opacity="1" fill="#3f0600" fill-opacity="1"></use><g><use xlink:href="#a3nsxAaIP" opacity="1" fill-opacity="0" stroke="#000000" stroke-width="1" stroke-opacity="0"></use></g></g><g><use xlink:href="#c6OjF14my" opacity="1" fill="#000000" fill-opacity="0"></use><g><use xlink:href="#c6OjF14my" opacity="1" fill-opacity="0" stroke="#853918" stroke-width="0.92" stroke-opacity="1"></use></g></g><g><use xlink:href="#aE2vCB485" opacity="1" fill="#000000" fill-opacity="0"></use><g><use xlink:href="#aE2vCB485" opacity="1" fill-opacity="0" stroke="#853918" stroke-width="0.92" stroke-opacity="1"></use></g></g><g><use xlink:href="#d15oPg1WmD" opacity="1" fill="#000000" fill-opacity="0"></use><g><use xlink:href="#d15oPg1WmD" opacity="1" fill-opacity="0" stroke="#823919" stroke-width="1.19" stroke-opacity="1"></use></g></g><g><use xlink:href="#c1IUf8ify7" opacity="1" fill="#000000" fill-opacity="0"></use><g><use xlink:href="#c1IUf8ify7" opacity="1" fill-opacity="0" stroke="#823919" stroke-width="1.19" stroke-opacity="1"></use></g></g><g><use xlink:href="#b1JVZg1wZ0" opacity="1" fill="#000000" fill-opacity="0"></use><g><use xlink:href="#b1JVZg1wZ0" opacity="1" fill-opacity="0" stroke="#823919" stroke-width="0.92" stroke-opacity="1"></use></g></g><g><use xlink:href="#a3FPKqAgm9" opacity="1" fill="#ff76ad" fill-opacity="1"></use><g><use xlink:href="#a3FPKqAgm9" opacity="1" fill-opacity="0" stroke="#000000" stroke-width="1" stroke-opacity="0"></use></g></g><g><use xlink:href="#bHsOiU05" opacity="1" fill="#ff76ad" fill-opacity="1"></use><g><use xlink:href="#bHsOiU05" opacity="1" fill-opacity="0" stroke="#000000" stroke-width="1" stroke-opacity="0"></use></g></g><g><use xlink:href="#dgNMBki3m" opacity="1" fill="#c6dadb" fill-opacity="1"></use><g><use xlink:href="#dgNMBki3m" opacity="1" fill-opacity="0" stroke="#000000" stroke-width="1" stroke-opacity="0"></use></g></g><g><use xlink:href="#a8omwabNu" opacity="1" fill="#006858" fill-opacity="1"></use><g><use xlink:href="#a8omwabNu" opacity="1" fill-opacity="0" stroke="#000000" stroke-width="1" stroke-opacity="0"></use></g></g><g><use xlink:href="#a2YGFi7Ial" opacity="1" fill="#ffffff" fill-opacity="1"></use><g><use xlink:href="#a2YGFi7Ial" opacity="1" fill-opacity="0" stroke="#000000" stroke-width="1" stroke-opacity="0"></use></g></g><g><use xlink:href="#a1thJtUfbg" opacity="1" fill="#c6dadb" fill-opacity="1"></use><g><use xlink:href="#a1thJtUfbg" opacity="1" fill-opacity="0" stroke="#000000" stroke-width="1" stroke-opacity="0"></use></g></g><g><use xlink:href="#b7kwmDH08" opacity="1" fill="#ffffff" fill-opacity="1"></use><g><use xlink:href="#b7kwmDH08" opacity="1" fill-opacity="0" stroke="#000000" stroke-width="1" stroke-opacity="0"></use></g></g><g><use xlink:href="#a4mKpebhy2" opacity="1" fill="#006858" fill-opacity="1"></use><g><use xlink:href="#a4mKpebhy2" opacity="1" fill-opacity="0" stroke="#000000" stroke-width="1" stroke-opacity="0"></use></g></g><g><use xlink:href="#m8OWxnDL2" opacity="1" fill="#000000" fill-opacity="0"></use><g><use xlink:href="#m8OWxnDL2" opacity="1" fill-opacity="0" stroke="#853918" stroke-width="0.92" stroke-opacity="1"></use></g></g><g><use xlink:href="#cttiGBZZK" opacity="1" fill="#853918" fill-opacity="1"></use><g><use xlink:href="#cttiGBZZK" opacity="1" fill-opacity="0" stroke="#000000" stroke-width="1" stroke-opacity="0"></use></g></g><g><use xlink:href="#gBXPXHYEg" opacity="1" fill="#000000" fill-opacity="0"></use><g><use xlink:href="#gBXPXHYEg" opacity="1" fill-opacity="0" stroke="#853918" stroke-width="0.92" stroke-opacity="1"></use></g></g><g><use xlink:href="#a2Suo1Id7Y" opacity="1" fill="#853918" fill-opacity="1"></use><g><use xlink:href="#a2Suo1Id7Y" opacity="1" fill-opacity="0" stroke="#000000" stroke-width="1" stroke-opacity="0"></use></g></g></g></g></g></svg>