<?xml version="1.0" encoding="UTF-8" standalone="no"?>
<!DOCTYPE svg PUBLIC "-//W3C//DTD SVG 1.1//EN" "http://www.w3.org/Graphics/SVG/1.1/DTD/svg11.dtd">
<svg version="1.1" xmlns="http://www.w3.org/2000/svg" xmlns:xlink="http://www.w3.org/1999/xlink" preserveAspectRatio="xMidYMid meet" viewBox="0 0 1200 800" width="1200" height="800"><defs><path d="M624.38 652.05C624.38 670.58 566.54 685.63 495.29 685.63C424.04 685.63 366.2 670.58 366.2 652.05C366.2 633.51 424.04 618.46 495.29 618.46C566.54 618.46 624.38 633.51 624.38 652.05Z" id="e4HRZLE132"></path><path d="M843.62 517.68C843.62 532.72 808.18 544.94 764.53 544.94C720.88 544.94 685.44 532.72 685.44 517.68C685.44 502.64 720.88 490.43 764.53 490.43C808.18 490.43 843.62 502.64 843.62 517.68Z" id="a1uMfYFf2r"></path><path d="M620.5 289.75C620.5 296.77 596.06 302.46 565.95 302.46C535.85 302.46 511.41 296.77 511.41 289.75C511.41 282.74 535.85 277.04 565.95 277.04C596.06 277.04 620.5 282.74 620.5 289.75Z" id="b2DS4PRu61"></path><path d="M584.11 251.97C584.11 251.97 584.83 259.03 586.46 260.62C588.1 262.21 593.79 262.5 593.79 262.5" id="b1Dx2Oxbuo"></path><path d="M501.1 223.79C501.1 223.79 498.73 231.19 499.3 234.32C499.87 237.45 505.47 240.3 505.47 240.3" id="h2eIsbKZd"></path><path d="M647.86 205.86C648.14 206.71 676.32 213.55 678.6 215.25C680.87 216.96 668.07 217.24 649 217.53C629.93 217.81 647.86 205.86 647.86 205.86" id="e3TOXaOp8"></path><path d="M644.45 235.46C640.64 242.36 633.06 247.55 623.34 251.09C614.55 254.3 603.99 256.14 592.93 256.65C579.95 257.27 566.27 256.04 553.83 253.02C552.82 252.78 551.81 252.52 550.82 252.25C542.73 250.06 534.82 247.47 527.48 244.31C527.46 244.31 527.43 244.29 527.41 244.29C516.4 239.56 506.61 233.6 499.17 225.93C498.59 225.33 498 224.72 497.44 224.09C492.78 218.86 489.18 212.87 486.96 205.99C486.29 203.94 485.75 201.81 485.34 199.6C485.03 197.93 484.82 196.29 484.72 194.7C482.84 167.59 508.41 149.83 527.12 153.41C528.01 153.58 528.9 153.79 529.75 154.06C539.3 157.07 545.68 162.53 552.56 166.68C556.28 168.93 560.16 170.81 564.76 171.72C571.57 173.05 580.07 171.34 589.7 170.18C598.67 169.09 608.59 168.46 619.06 171.14C619.06 171.14 619.07 171.15 619.07 171.15C620.86 171.6 622.69 172.16 624.52 172.85C632.77 175.88 639.08 181.78 643.34 189.05C643.34 189.07 643.34 189.07 643.35 189.08C651.43 202.9 652.08 221.68 644.45 235.46" id="c3oL15KKnC"></path><path d="M527.13 160.74C530.93 160.05 534.31 160.98 534.99 165.39C535.45 168.41 533.19 171.15 530.81 173.08C528.17 175.23 525.18 176.96 522 178.19C519.93 178.99 517.53 179.56 515.55 178.56C513.6 177.59 512.58 175.27 512.69 173.09C512.81 170.92 513.87 168.9 515.21 167.18C516.92 164.97 522.36 161.6 527.13 160.74" id="g1q3cWUkXv"></path><path d="M496.61 181.71C491.43 195.21 492.22 210.56 497.44 224.09C492.78 218.86 489.18 212.87 486.96 205.99C486.29 203.94 485.75 201.81 485.34 199.6C485.03 197.93 484.82 196.29 484.72 194.7C482.84 167.59 508.4 149.83 527.12 153.41C513.66 158.28 502.39 166.73 496.61 181.71" id="akaIwAfFe"></path><path d="M596.07 204.88C592.65 226.66 575 251.12 553.82 253.01C552.82 252.77 551.81 252.52 550.82 252.24C542.73 250.06 534.82 247.46 527.48 244.3C534.79 246.27 542.61 245.07 558.78 222.36C575 199.6 572.73 177.4 564.75 171.72C571.57 173.05 580.07 171.34 589.7 170.18C596.22 177.45 598.41 190 596.07 204.88" id="a1UEDugVmh"></path><path d="M623.34 251.08C614.55 254.29 603.99 256.14 592.93 256.65C631.62 233.53 632.46 182.25 619.07 171.15C620.86 171.59 622.69 172.16 624.52 172.84C632.76 175.88 639.08 181.77 643.33 189.05C643.33 189.06 643.33 189.06 643.35 189.08C649.64 205.83 651.26 232.59 623.34 251.08" id="b2gNqNRHn"></path><path d="M644.45 235.46C640.64 242.36 633.06 247.55 623.34 251.09C614.55 254.3 603.99 256.14 592.93 256.65C579.95 257.27 566.27 256.04 553.83 253.02C552.82 252.78 551.81 252.52 550.82 252.25C542.73 250.06 534.82 247.47 527.48 244.31C527.46 244.31 527.43 244.29 527.41 244.29C516.4 239.56 506.61 233.6 499.17 225.93C523.38 240.31 552.48 246.3 580.41 242.65C588.95 241.52 597.88 239.25 603.81 233C609.07 227.45 611.12 219.48 611.17 211.83C611.27 199.09 605.31 185.46 593.7 180.24C582.44 175.17 568.12 178.63 558.16 171.38C556.44 170.11 554.53 168.51 552.56 166.68C556.28 168.93 560.16 170.81 564.76 171.72C571.57 173.05 580.07 171.34 589.7 170.18C598.67 169.09 608.59 168.46 619.06 171.14C619.06 171.14 619.07 171.15 619.07 171.15C620.86 171.6 622.69 172.16 624.52 172.85C632.77 175.88 639.08 181.78 643.34 189.05C643.34 189.07 643.34 189.07 643.35 189.08C651.43 202.9 652.08 221.68 644.45 235.46" id="a3DgoZsygm"></path><path d="M593.79 251.97C593.79 251.97 594.51 259.03 596.14 260.62C597.77 262.21 603.46 262.5 603.46 262.5" id="d5VMyxtfUp"></path><path d="M510.78 232.04C510.78 232.04 508.41 239.44 508.98 242.57C509.55 245.7 515.14 248.55 515.14 248.55" id="aN60xD4ZV"></path><path d="M494.75 174.84C494.75 174.84 490.2 191.92 496.46 192.77C502.72 193.62 504.71 176.83 504.71 176.83" id="aFkt3PrSo"></path><path d="M531.46 181.96C531.46 181.96 526.91 199.03 533.17 199.88C539.43 200.74 541.42 183.95 541.42 183.95" id="b2iYhw42uN"></path><path d="M510.97 183.82C510.97 183.82 509.55 189.95 514.39 190.94C519.22 191.92 519.51 185.09 519.51 185.09" id="b3h2OAXOnn"></path><path d="M548.16 212.25C547.74 215.64 542.83 217.81 537.18 217.11C531.54 216.4 527.32 213.09 527.74 209.7C528.16 206.32 533.08 204.14 538.72 204.85C544.36 205.55 548.59 208.87 548.16 212.25" id="f6qbA6TaD"></path><path d="M496.42 201.52C496.04 204.49 491.88 206.43 486.96 205.99C486.29 203.94 485.75 201.81 485.34 199.6C485.03 197.93 484.82 196.29 484.72 194.7C485.69 194.62 486.74 194.63 487.81 194.77C492.95 195.42 496.81 198.42 496.42 201.52" id="g7ZamKnNR"></path><path d="M661.52 173.99C634.49 196.19 580.87 190.11 583.54 174.84C583.57 174.67 583.61 174.48 583.64 174.3C587.86 151.52 608.02 115.61 644.16 112.36C645.38 112.26 646.58 112.19 647.74 112.19C681.09 111.95 687.65 152.54 661.52 173.99" id="c7fgmBKAmR"></path><path d="M661.52 173.99C634.49 196.19 580.87 190.11 583.54 174.84C583.57 174.67 583.61 174.48 583.64 174.3C585.5 178.48 590.06 181.06 594.64 181.59C599.4 182.12 604.17 180.82 608.69 179.21C616.02 176.62 623.07 173.25 629.79 169.36C644.65 160.74 659.15 147.16 659.35 129.98C659.42 124.35 657.63 118.34 653.17 114.87C651.57 113.61 649.71 112.76 647.74 112.19C681.09 111.95 687.65 152.54 661.52 173.99" id="ddIILnHx4"></path><path d="M600.96 146.97C599.8 149.17 598.96 152.26 600.88 153.85C601.73 154.55 602.91 154.72 604 154.65C606.65 154.51 609.1 153.23 611.35 151.84C618.5 147.41 624.68 141.43 629.35 134.43C630.88 132.13 632.3 129.39 631.61 126.71C628.33 113.94 603.24 142.65 600.96 146.97" id="aalUn8I3Vs"></path><path d="M583.45 176.84C578.41 179.79 572.08 178.69 565.63 174.94C546.18 163.67 525.69 128.5 536.58 107.85C538.32 104.56 540.39 101.96 542.66 100.02C559.36 85.78 587.91 106.13 590.66 134.43C593.78 166.59 587.33 174.55 583.45 176.84" id="a4d7lKSOgs"></path><path d="M543.36 120.42C541.74 122.84 541.48 125.92 541.68 128.82C542.25 136.9 546.11 144.51 551.43 150.62C552.66 152.03 554.01 153.41 555.75 154.11C557.48 154.81 559.67 154.67 560.97 153.32C562.03 152.21 562.27 150.57 562.39 149.03C562.85 142.59 554.19 104.28 543.36 120.42" id="fZX1o5xHl"></path><path d="M583.45 176.84C578.41 179.79 572.08 178.69 565.63 174.94C567.16 174.91 568.63 174.69 569.96 173.99C573.48 172.18 574.74 167.84 575.34 163.92C577.65 148.72 574.9 132.79 567.62 119.23C563.13 110.83 556.32 102.94 547.1 100.56C545.65 100.19 544.16 100.02 542.66 100.02C559.36 85.78 587.91 106.13 590.66 134.43C593.78 166.59 587.33 174.55 583.45 176.84" id="c59Q27hCK"></path><path d="M507.27 157.76C507.27 157.76 515.52 116.55 534.02 115.1" id="c1Dxssw3A"></path><path d="M535.25 122.53C539.23 122.79 538.38 115.17 534.11 115.1C529.84 115.03 532.4 122.34 535.25 122.53" id="b2yIZtRqoc"></path><path d="M533.16 159.05C533.16 159.05 547.29 119.46 565.81 120.7" id="dGojdeE83"></path><path d="M565.94 128.23C569.84 129.06 570.1 121.4 565.89 120.72C561.68 120.03 563.15 127.63 565.94 128.23" id="b4Zwj7A5M"></path><path d="M386.06 410.95C386.06 410.95 360.16 382.8 371.67 372.84C383.18 362.89 396.33 387.2 398.64 404.55C396.13 405.83 388.58 409.67 386.06 410.95Z" id="f3kodd1XH"></path><path d="M389.6 405.46C389.6 405.46 393 404.44 394.47 403.4C394.47 403.4 387.51 378.8 380.04 382.35C372.58 385.9 384.09 400.82 389.6 405.46" id="ayuUFAAEh"></path><path d="M406.46 399.21C406.46 399.21 381.98 416.57 370.06 419.68C369.32 419.88 368.56 420.06 367.82 420.25C353.83 423.7 341.16 424.68 339.65 414.14C338.05 403.07 358.51 406.29 364.65 402.35C364.65 402.35 344.18 404.96 347.84 393C349.07 389 352.97 388.23 358.54 388.44C369.62 388.81 387.26 392.98 403.46 382.91C404.06 386.17 405.86 395.95 406.46 399.21Z" id="e88bJ3s6c"></path><path d="M362.77 417.32C364.57 418.02 366.65 418.86 367.82 420.25C353.83 423.7 341.16 424.68 339.65 414.14C338.05 403.07 358.51 406.28 364.65 402.35C364.65 402.35 344.18 404.96 347.84 393C349.07 389 352.97 388.23 358.54 388.44C354.43 390.56 345.71 394.53 354.84 396.59C361.35 398.07 367.89 399.54 374.43 400.99C369.96 403.56 365.49 406.17 361.08 408.83C359.99 409.51 358.79 410.27 358.35 411.48C357.44 414.02 360.25 416.31 362.77 417.32" id="bAXIZweY8"></path><path d="M468.98 559.82C468.85 567.34 467.6 577.63 465.79 588.34C465.79 588.34 465.79 588.36 465.79 588.36C463.53 601.94 460.39 616.14 457.56 626.2C455.67 632.87 453.92 637.72 452.61 639.32C450.65 641.78 447.26 642.59 443.7 642.35C438.61 642.03 433.21 639.62 431.39 636.86C429.22 633.62 429.4 629.11 430.82 617.92C431.44 613.06 432.31 606.88 433.31 598.97C434.56 589.19 434.48 578.99 433.89 570.05C433.51 564.46 432.9 559.36 432.34 555.2C431.41 548.38 430.49 544.03 430.49 544.03C443.79 554.62 468.98 559.82 468.98 559.82" id="c71FAY31ii"></path><path d="M457.56 626.2C455.67 632.87 453.91 637.73 452.62 639.34C447.86 645.28 434.47 641.52 431.37 636.85C429.22 633.6 429.39 629.1 430.81 617.92C436.81 621.18 446.14 625.11 457.56 626.2" id="b2p5EjL7Ou"></path><path d="M468.98 559.82C468.85 567.34 467.6 577.63 465.79 588.34C465.79 588.34 465.79 588.36 465.79 588.36C463.53 601.94 460.39 616.14 457.56 626.2C455.67 632.87 453.92 637.72 452.61 639.32C450.65 641.78 447.26 642.59 443.7 642.35C452.18 625.4 454.76 605.48 450.69 586.94C449.9 583.22 448.71 579.38 445.83 576.88C443.48 574.79 440.3 573.96 437.45 572.64C436.27 572.09 435.08 571.17 433.89 570.05C433.51 564.46 432.9 559.36 432.34 555.2C431.41 548.38 430.49 544.03 430.49 544.03C443.79 554.62 468.98 559.82 468.98 559.82" id="c1PBG9L8ct"></path><path d="M553.98 585.73C553.99 585.75 554 585.76 554 585.76C551.75 599.31 548.58 613.54 545.77 623.59C543.88 630.26 542.1 635.12 540.82 636.72C538.13 640.08 532.71 640.35 527.94 639.11C524.25 638.13 520.93 636.26 519.57 634.23C517.41 630.99 517.58 626.48 519 615.32C519.65 610.43 520.49 604.28 521.49 596.37C522.35 589.64 522.6 582.71 522.46 576.14C522.27 567.14 521.4 558.82 520.55 552.59C520.16 549.79 519.77 547.41 519.44 545.58C519 542.93 518.67 541.4 518.67 541.4C519.68 542.2 520.76 542.98 521.9 543.71C535.66 552.79 557.19 557.21 557.19 557.21C557.06 564.71 555.78 575 553.98 585.73" id="eaWblDQyw"></path><path d="M545.76 623.59C543.87 630.26 542.11 635.12 540.82 636.72C536.06 642.67 522.66 638.91 519.57 634.24C517.42 630.99 517.58 626.49 519 615.31C525.01 618.57 534.34 622.49 545.76 623.59" id="e1qdmXwBjG"></path><path d="M553.98 585.73C553.99 585.75 554 585.76 554 585.76C551.75 599.31 548.58 613.54 545.77 623.59C543.88 630.26 542.1 635.12 540.82 636.72C538.13 640.08 532.71 640.35 527.94 639.11C538.75 620.62 543.94 598.9 542.55 577.55C542.42 575.32 541.92 572.72 539.89 571.85C537.86 570.98 535.68 572.39 533.75 573.47C530.43 575.3 526.38 576.22 522.46 576.14C522.27 567.14 521.4 558.82 520.55 552.59C520.16 549.79 519.77 547.41 519.44 545.58C520.25 544.93 521.06 544.31 521.9 543.71C535.66 552.79 557.19 557.21 557.19 557.21C557.06 564.71 555.78 575 553.98 585.73" id="bSogN0MyQ"></path><path d="M598.06 574.31C598.66 589.97 593.5 607.67 587.73 620.56C587.43 621.25 587.13 621.94 586.81 622.59C577.95 641.46 570.34 642.17 564.4 641.89C562.72 641.81 561.1 641.55 559.61 641.11C554.02 639.44 550.54 635.29 553.33 629.09C554.47 626.53 555.97 621.93 557.33 616.37C560.08 605.13 562.24 589.9 559.98 579.22C557.59 567.97 553.12 562.53 546.62 562.33C543.89 562.22 540.8 563.07 537.38 564.8C525.77 570.65 505.66 567.41 502.35 568.29C499.04 569.18 504.46 593.93 499.58 616.21C498.57 620.77 497.67 624.61 496.79 627.82C493.45 640.36 490.81 643.98 487.01 647.09C484.81 648.91 480.55 649.37 476.56 648.84C471.95 648.2 467.68 646.21 467.41 643.51C467.15 640.9 467.72 635.14 468.13 627.7C468.55 620.56 468.83 611.89 468.1 603.08C467.59 597.21 466.79 592.34 465.79 588.39C465.79 588.38 465.79 588.34 465.79 588.34C463.8 580.34 461.16 576.2 459.18 575.28C456.74 574.16 441.63 573.94 432.37 555.22C432.37 555.22 432.35 555.2 432.34 555.2C430.35 551.21 428.65 546.35 427.38 540.46C426.09 534.47 425.14 529.42 424.44 525.06C421.98 510.16 422.25 503.41 421.07 495.24C420.68 492.46 420.11 489.5 419.22 486.01C418.55 483.44 413.84 489.66 402.5 489.9C395.85 490.07 393.83 489.84 391.85 490.91C390.48 491.67 389.09 493.04 386.08 495.66C379.71 501.19 364.57 514.72 347.83 506.53C345.53 505.4 343.24 503.9 340.94 501.93C324.76 488.13 327.03 461.29 349.68 436.97C354.22 432.11 359.55 427.36 365.7 422.83C402.73 395.65 403.41 402.62 402.76 397.64C402.08 392.69 390.52 361.73 403.27 357.58C416.02 353.43 426.61 374 421.98 394.08C421.98 394.08 450.87 387.78 473.85 413.59C496.77 439.37 499.1 461.68 509.8 466.48C520.52 471.3 563.1 440.98 595.44 477.25C627.75 513.5 597.23 553.36 598.06 574.31" id="b2X58tQae5"></path><path d="M436.07 511.9C433.76 516.03 433.57 520.97 433.44 525.7C433.28 531.23 433.17 536.98 435.44 542.03C437.7 547.09 443.09 551.2 448.52 550.1C454.91 548.82 458 541.55 459.21 535.14C460.2 529.84 460.62 524.27 458.99 519.13C456.03 509.79 442.77 500.01 436.07 511.9" id="g1MT11fhfa"></path><path d="M479.07 641.65C478.44 644.11 477.63 646.55 476.55 648.83C471.95 648.2 467.68 646.21 467.42 643.51C467.15 640.9 467.72 635.14 468.13 627.7C468.55 620.56 468.83 611.89 468.1 603.08C467.59 597.21 466.79 592.34 465.79 588.39C465.79 588.38 465.79 588.34 465.79 588.34C463.8 580.33 461.16 576.2 459.18 575.28C456.74 574.16 441.63 573.95 432.37 555.22C432.36 555.22 432.35 555.2 432.34 555.2C430.35 551.21 428.65 546.35 427.38 540.46C426.1 534.47 425.14 529.42 424.44 525.06C421.98 510.16 422.25 503.41 421.07 495.24C427.82 499.58 430.36 513.91 432.2 519.74C436.73 534.2 442.16 549.24 453.97 559.45C460 564.64 467.46 568.38 472.06 574.89C476.39 581.02 477.55 588.75 478.59 596.18C480.73 611.28 482.84 626.87 479.07 641.65" id="ib823YTA4"></path><path d="M414.79 457.19C414.79 457.19 409.39 438.3 419.04 435.56C428.7 432.83 431.61 454.04 431.61 454.04" id="b9MUBF51W"></path><path d="M496.8 627.83C493.44 640.37 490.82 643.97 487.01 647.1C482.23 651.03 467.92 648.57 467.42 643.49C467.15 640.91 467.72 635.13 468.14 627.7C475.48 629.26 485.62 630.2 496.8 627.83" id="bkUj9LJH1"></path><path d="M587.73 620.56C587.42 621.26 587.13 621.94 586.81 622.59C577.94 641.46 570.34 642.19 564.42 641.88C556.29 641.47 549.82 636.9 553.32 629.11C554.47 626.54 555.98 621.94 557.33 616.36C564.73 619 575.2 621.36 587.2 620.21C587.2 620.21 587.41 620.32 587.73 620.56" id="a3WYk1sxwY"></path><path d="M569.16 583.57C569.33 603.05 562.05 621.8 559.61 641.11C554.02 639.44 550.54 635.29 553.33 629.1C554.47 626.53 555.97 621.93 557.33 616.37C560.08 605.13 562.24 589.9 559.98 579.22C557.59 567.97 553.12 562.53 546.63 562.33C558.91 557.25 568.98 569.59 569.16 583.57" id="aBA6E0wuq"></path><path d="M419.21 486C431.3 480.49 436.81 476.07 440.2 470.38" id="a4ZSFdPhoV"></path><path d="M384.08 458.83C395.7 475.93 392.81 488.08 391.86 490.92C390.48 491.67 389.09 493.05 386.09 495.65C378.85 501.93 360.33 518.52 340.94 501.94C324.77 488.13 327.03 461.29 349.68 436.96C349.69 436.96 349.71 436.96 349.71 436.96C349.71 436.96 368.63 436.1 384.08 458.83" id="b6yZo2bFFf"></path><path d="M435.18 489.21C429.7 500.47 426.07 512.64 424.44 525.06C421.15 505.06 422.74 499.74 419.22 486.01C418.55 483.44 413.85 489.66 402.5 489.91C395.86 490.07 393.83 489.84 391.85 490.91C390.48 491.67 389.09 493.04 386.08 495.66C379.71 501.19 364.57 514.72 347.83 506.53C353.55 504.43 359.05 500.73 363.74 497.63C365.67 496.36 386.65 476.07 383.11 475.07C401.38 480.36 421.82 477.64 438.08 467.77C442.43 473.98 438.5 482.39 435.18 489.21" id="amzr3C5mM"></path><path d="M367.21 486.31C367.8 488.08 367.36 489.83 366.23 490.2C365.1 490.58 363.71 489.44 363.12 487.67C362.53 485.89 362.96 484.14 364.1 483.77C365.23 483.39 366.62 484.53 367.21 486.31" id="b2rqFjC8Qz"></path><path d="M443.05 461.9C443.7 464.61 440.56 467.67 436.05 468.74C431.53 469.81 427.35 468.49 426.71 465.78C426.06 463.07 429.2 460.01 433.72 458.94C438.23 457.86 442.41 459.19 443.05 461.9" id="a1bMKw1KxK"></path><path d="M412.98 396.92C412.98 396.92 416.52 397.1 418.25 396.6C418.25 396.6 419.91 371.1 411.68 371.95C403.46 372.8 409.33 390.71 412.98 396.92" id="h3gyyGyfP5"></path><path d="M587.42 517.91C597.93 518.28 601.38 540.1 589.03 545.52C576.69 550.93 577.01 517.53 587.42 517.91" id="n1SurExC7d"></path><path d="M592.82 500.69C601.91 500.58 604.27 510.51 597.69 512.95C591.12 515.39 588.18 500.75 592.82 500.69" id="g3Z4gwrOlh"></path><path d="M577.99 506.03C581.2 502.44 585.46 507.05 583.79 511.57C582.12 516.09 574.92 509.48 577.99 506.03" id="g43TMfhowI"></path><path d="M624.93 518.8C590.97 499.24 574.05 465.38 574.05 465.38C574.05 465.38 578.63 455.23 588.13 447.31C591.5 444.5 595.51 441.97 600.14 440.28C604.97 438.51 610.53 437.64 616.8 438.33C645.91 441.59 654.01 475.36 657.64 491.16C661.23 506.99 670.09 507.98 671.52 511.61C672.97 515.28 658.9 538.39 624.93 518.8" id="a8B13FbrX"></path><path d="M624.93 518.8C590.97 499.24 574.05 465.38 574.05 465.38C574.05 465.38 578.63 455.23 588.13 447.31C594.39 452.7 600.94 457.17 605.33 465.24C611.07 475.73 613.56 488.58 622.73 496.23C625.13 498.25 628.04 499.84 631.19 499.99C637.12 500.27 642.32 495.04 643.57 489.22C644.83 483.4 642.96 477.34 640.19 472.08C634.92 462.1 626.26 453.96 615.95 449.36C610.68 446.97 604.78 445.36 600.84 441.14C600.58 440.86 600.34 440.59 600.14 440.28C604.97 438.51 610.53 437.64 616.8 438.33C645.91 441.59 654.01 475.36 657.64 491.16C661.23 506.99 670.09 507.98 671.52 511.61C672.97 515.28 658.9 538.39 624.93 518.8" id="aG6kepYeT"></path><path d="M599.98 492.46C591.61 497.55 581.92 483.2 575.54 474.57C574.32 472.92 573.23 471.48 572.27 470.42C572.77 471.05 574.09 472.77 575.58 475.03C579.72 481.34 585.04 491.83 576.85 494.62C568.7 497.4 556.41 485.42 549.38 477.48C552.79 482.6 555.59 489.44 549.74 493.43C539.85 500.15 524.96 473.14 524.13 471.64C524.37 472.69 526.85 483.11 520.79 484.64C514.88 486.15 508.41 472.15 507.54 470.24C507.97 471.74 510.07 480.41 499.01 480.5C486.92 480.6 487.98 443.32 487.98 443.32C487.98 443.32 484.57 453.02 478.34 447.48C472.11 441.91 472.84 419.07 472.84 419.07C472.84 419.07 471.65 436.14 462.48 430.17C456.39 426.23 452.81 413.91 451.1 406.08C450.17 407.42 447.96 408.37 443.38 408.2C429.88 407.65 421.99 394.08 421.99 394.08C421.99 394.08 422.13 392.87 422.25 390.9C422.3 390.26 422.34 389.55 422.38 388.75C422.58 384.56 422.61 378.55 421.65 373.3C421.65 373.3 441.13 359.71 473.31 381C505.5 402.3 510.75 438.84 546.9 441.26C582.77 443.7 589.28 452.81 596.67 463.2C596.72 463.28 596.77 463.35 596.82 463.43C599.32 466.95 601.62 470.68 603.2 474.29C606.36 481.51 606.68 488.33 599.98 492.46" id="f2kY5tmTI"></path><path d="M575.58 475.03C579.72 481.34 585.04 491.83 576.85 494.62C568.7 497.4 556.41 485.42 549.38 477.48C552.79 482.6 555.59 489.44 549.74 493.43C539.85 500.15 524.96 473.14 524.13 471.64C524.37 472.69 526.85 483.11 520.79 484.64C514.88 486.15 508.41 472.15 507.54 470.24C507.97 471.74 510.07 480.41 499.01 480.5C486.92 480.6 487.98 443.31 487.98 443.31C487.98 443.31 484.57 453.02 478.34 447.48C472.11 441.91 472.84 419.07 472.84 419.07C472.84 419.07 471.65 436.14 462.48 430.17C456.39 426.23 452.81 413.9 451.1 406.08C450.17 407.42 447.96 408.37 443.38 408.2C429.88 407.65 421.99 394.08 421.99 394.08C421.99 394.08 422.12 392.87 422.25 390.9C422.3 390.26 422.34 389.55 422.38 388.75C425.58 391.32 428.66 394.33 431.93 395.99C441.78 400.98 451.8 400.62 462.34 399.06C463.41 403.42 461.75 407.35 461.76 411.82C461.79 416.22 465.89 421.36 469.8 419.31C473.56 417.32 472.84 410.74 476.73 409.03C477.92 420.05 479.85 431.02 482.49 441.8C485.76 437.62 489.03 433.43 492.32 429.25C493.93 440.76 495.51 452.24 497.11 463.75C497.53 466.87 499.4 470.96 502.38 470.03C503.72 465.28 505.07 460.51 506.41 455.74C508.26 463.97 513.97 471.26 521.51 475.05C523.17 470.63 522.97 465.52 520.95 461.25C527.72 469.14 535 476.62 542.71 483.6C545.15 478.97 545.34 473.24 543.21 468.46C551.55 476.97 562.71 482.63 574.49 484.34C575.43 481.34 575.8 478.17 575.58 475.03" id="bf8wkbLsT"></path><path d="M596.67 463.2C593.89 463.95 590.69 463.61 588.02 462.39C583.47 460.33 580.12 456.38 576.93 452.54C578.17 455.95 574.05 459.37 570.44 458.94C566.83 458.49 564.01 455.74 561.47 453.14C563.93 457.61 563.62 463.47 560.71 467.65C553.27 462.12 547.25 454.73 543.26 446.4C544.9 451.11 537.95 455.03 533.45 452.86C528.92 450.72 526.86 445.53 525.19 440.82C524.19 444.39 522.62 447.76 520.54 450.83C514.02 445.06 509.4 437.19 507.55 428.7C507.79 431.51 503.77 433.02 501.33 431.64C498.85 430.24 497.77 427.34 496.84 424.67C494.61 418.2 492.38 411.74 490.15 405.28C489.59 407.43 488.34 409.36 486.64 410.79C484.87 406.21 483.1 401.66 481.36 397.08C481.08 399.2 479.85 401.19 478.05 402.36C475.74 397.74 473.41 393.12 471.1 388.49C469.57 391.12 470.64 394.4 470.57 397.42C470.48 400.47 467.67 404.03 465.04 402.53C463.88 401.88 463.38 400.53 462.95 399.28C460.27 391.37 457.59 383.42 454.9 375.51C452.39 374.87 450.43 377.79 450.01 380.35C449.58 382.89 449.69 385.82 447.88 387.64C445.48 390.02 441.12 388.8 439.14 386.09C437.14 383.38 436.84 379.83 436.64 376.45C425.19 376.52 428.1 386.64 422.25 390.9C422.53 386.84 422.77 379.55 421.64 373.3C421.64 373.3 441.13 359.71 473.31 381C505.5 402.3 510.75 438.84 546.9 441.26C582.77 443.7 589.28 452.82 596.67 463.2" id="f2bUNhJ3F0"></path><path d="M335.19 481.19C335.05 483.22 335.04 485.34 335.86 487.21C336.68 489.08 338.52 490.63 340.56 490.52C343.82 490.33 345.39 486.47 345.94 483.25C347.33 475.01 347.44 465.58 353.59 459.93C355.98 457.74 359.36 455.86 359.52 452.63C360.07 441.49 347.48 450.81 345.09 453.97C339.25 461.7 335.86 471.57 335.19 481.19" id="f1v0VihYa3"></path><path d="M839.14 293.15C838.93 296.57 838.61 299.97 838.11 303.19C834.87 324.36 837.04 352.54 837.04 352.54C837.04 352.54 819.95 336.48 818.12 303.07C817.3 288.04 820.22 275.92 823.85 267.27C823.85 267.27 823.87 267.27 823.87 267.27C828.34 256.73 833.93 251.35 835.26 252.17C837.33 253.45 840.28 274 839.14 293.15" id="bzM3bltir"></path><path d="M865.51 298.01C865.51 298.03 865.49 298.03 865.49 298.05C864.08 301.66 862.52 305.29 860.88 308.87C858.83 313.32 856.91 317.42 855.15 321.21C855.15 321.24 855.13 321.26 855.11 321.28C844.89 343.07 839.12 353.88 838.34 355.35C838.27 355.46 838.25 355.5 838.25 355.5C838.25 355.5 834.48 306.45 845.85 279.07C846.37 277.79 846.92 276.56 847.49 275.35C859.12 250.41 878.63 237.73 880.23 239.32C881.71 240.83 876.94 269.14 865.51 298.01" id="b1r877gWSw"></path><path d="M902.52 306.93C902.18 307.39 901.81 307.82 901.45 308.25C899.16 311.06 896.86 313.8 894.58 316.46C891.93 319.57 889.15 322.44 886.28 325.09C877.72 333.14 868.48 339.35 860.29 344.1C858.42 345.21 856.57 346.22 854.84 347.15C851.21 349.12 847.92 350.74 845.11 352.11C842.24 353.5 839.89 354.61 838.25 355.5C838.25 355.5 838.27 355.46 838.34 355.34C839 353.59 845.21 338.32 855.11 321.28C855.13 321.26 855.15 321.23 855.15 321.21C863.37 307.06 874.14 291.75 886.43 281.85C889.22 279.62 891.89 277.63 894.47 275.83C917.92 259.56 932.66 261.02 934.44 261.64C936.18 262.21 919.95 285.5 902.52 306.93" id="b4sPesjrjA"></path><path d="M976.93 315.16C977.11 316.37 951.71 327.46 921.03 336.09C916.05 337.48 910.92 338.83 905.76 340.04C905.4 340.13 905.05 340.2 904.69 340.28C888.74 343.98 874.93 346.76 864.33 348.75C855.47 350.42 848.86 351.51 845.11 352.1C843.13 352.42 841.94 352.61 841.65 352.63C842.97 351.62 862.91 337.14 886.28 325.09C898.87 318.59 912.49 312.79 924.7 310.24C926.73 309.8 928.69 309.44 930.61 309.14C962.16 303.98 976.74 313.84 976.93 315.16" id="gwBF6Eva"></path><path d="M963.28 386.74C962.28 386.44 936.26 378.14 915.25 368.63C910.26 366.36 905.56 364.04 901.54 361.73C889.2 354.66 874.5 350.76 864.33 348.75C860.33 347.95 857.02 347.45 854.84 347.15C852.96 346.9 851.89 346.79 851.89 346.79C851.89 346.79 855.09 345.56 860.29 344.1C870.58 341.2 888.76 337.32 905.76 340.03C913.24 341.22 920.52 343.69 926.78 348.11C928.87 349.6 930.86 351.06 932.73 352.54C955.27 370.04 963.03 386.22 963.28 386.74" id="bh9xpf3bB"></path><path d="M826.22 323.34C826.33 323.26 826.44 323.18 826.57 323.12C828.67 322 830.17 324.5 830.76 326.12C835.07 337.81 831.88 351.94 838.85 362.28C842.02 358.27 841.57 352.6 841.04 347.51C840.02 337.77 839.34 327.52 843.32 318.58C843.87 317.35 844.73 316 846.07 315.9C848.03 315.76 848.97 318.26 849.19 320.22C850.47 331.29 849.21 342.64 845.55 353.16C847.34 353.34 848.93 351.84 849.56 350.15C850.19 348.47 850.11 346.62 850.18 344.82C850.66 331.65 860.47 319.37 873.2 315.99C875.27 318.09 874.82 321.71 873.16 324.14C871.49 326.57 868.91 328.18 866.63 330.03C860.78 334.75 856.54 341.41 854.73 348.69C860.27 343.71 865.85 338.7 872.3 334.97C875.6 333.06 879.14 331.5 882.84 330.53C884.56 330.09 891.7 328.06 892.97 329.54C895.71 332.72 884.18 337.64 882.32 338.62C874.95 342.48 867.58 346.34 860.21 350.2C872.95 344.72 887.33 339.18 900.28 344.16C901.59 344.67 903.05 345.52 903.17 346.92C903.32 348.76 901.16 349.82 899.37 350.26C894.15 351.55 888.74 352.09 883.36 351.87C877.2 351.61 870.72 350.41 865.08 352.91C862.49 354.06 860.28 355.93 858.01 357.63C851.99 362.14 845.25 365.69 838.12 368.09C826.55 371.98 829.12 364.85 829.23 357.93C829.33 351.68 828.22 345.5 827.16 339.37C826.68 336.53 823.34 325.75 826.22 323.34" id="b8lrsLhqp"></path><path d="M835.26 252.17C837.33 253.45 840.28 274 839.14 293.15C838.77 294.77 838.52 296.41 838.36 298.08C836.92 291.8 838.8 285.23 838.25 278.82C837.59 271.45 831.68 263.99 823.87 267.27C828.35 256.73 833.93 251.35 835.26 252.17" id="eXS810CAK"></path><path d="M880.23 239.32C881.71 240.83 876.94 269.14 865.51 298.01C865.51 298.03 865.49 298.03 865.49 298.05C864.64 299.08 863.85 300.11 863.07 301.15C864.81 290.14 865.54 278.95 865.24 267.8C865.19 266.29 864.97 264.51 863.64 263.78C862.36 263.1 860.81 263.78 859.58 264.54C854.88 267.32 850.8 271.04 847.49 275.35C859.12 250.41 878.63 237.72 880.23 239.32" id="dOP5oGDW5"></path><path d="M902.52 306.93C908.52 299.12 911.33 288.95 910.14 279.18C909.96 277.74 909.64 276.22 908.59 275.24C907.38 274.1 905.56 274 903.89 274.07C900.63 274.23 897.5 274.85 894.47 275.83C917.92 259.56 932.66 261.02 934.44 261.64C936.18 262.21 919.95 285.5 902.52 306.93" id="a2djv1NJq8"></path><path d="M963.28 386.74C962.28 386.44 936.26 378.14 915.25 368.63C915.26 368.63 915.33 368.63 915.34 368.63C918.36 369.01 921.32 370.15 924.33 369.79C931.39 368.94 934.99 359.98 932.94 353.15C932.92 353.09 932.75 352.6 932.73 352.54C955.27 370.04 963.03 386.22 963.28 386.74" id="agzNCJwdw"></path><path d="M976.93 315.16C977.11 316.37 951.71 327.46 921.03 336.09C926.77 332.98 932.32 329.52 937.61 325.71C940.26 323.81 943.11 321.33 942.98 318.06C942.84 314.73 939.57 312.43 936.5 311.13C934.58 310.3 932.62 309.64 930.61 309.14C962.16 303.98 976.74 313.84 976.93 315.16" id="a3aiw4fnVM"></path><path d="M875.68 313.87C878.74 315.72 882.57 313.31 885.16 310.84C888.84 307.33 908.5 286.59 896.45 286.24C890.12 286.06 872.8 312.14 875.68 313.87" id="d3sfyAYj0"></path><path d="M856.48 281.63C855.63 277.5 852.79 280 851.56 282.44C850.2 285.13 850 288.21 849.43 291.13C848.24 297.25 847.31 303.33 847.16 309.58C847.14 310.44 847.15 311.38 847.67 312.06C848.45 313.06 850.06 313.05 851.12 312.34C852.18 311.64 852.8 310.46 853.33 309.3C857.26 300.72 858.38 290.88 856.48 281.63" id="flBH82eMY"></path><path d="M830.84 308.7C831.52 304.62 831.89 300.49 831.83 296.36C831.79 293.31 832.01 287.18 830.08 284.63C827 280.55 824.12 289.5 823.96 291.99C823.56 298.33 823.6 304.32 825.36 310.49C825.6 311.32 825.91 312.22 826.65 312.67C828.61 313.86 830.47 310.95 830.84 308.7" id="bgpCvEN9"></path><path d="M926.82 321C930.12 318.72 928.67 317.2 925.42 317.27C922.6 317.33 919.8 317.77 917.08 318.51C911.53 320.02 906.16 322.78 901.98 326.77C901 327.69 900.01 329.01 900.51 330.26C900.77 330.93 901.41 331.37 902.05 331.69C906.95 334.08 912.62 330.86 917.1 327.75C920.34 325.5 923.58 323.25 926.82 321" id="abxQ8SlTK"></path><path d="M919.88 359.72C922.26 359.74 923.51 357.49 922.7 355.36C922.09 353.74 920.31 352.78 918.99 351.78C916.33 349.79 911.14 345.39 907.64 347.95C906.43 348.84 906.39 350.75 907.16 352.05C907.92 353.34 909.26 354.18 910.55 354.96C912.29 356.02 914.03 357.07 915.77 358.13C917.04 358.9 918.39 359.7 919.88 359.72" id="c4QHKQnq7R"></path><path d="M747.51 496.47C747.51 496.47 745.28 493.56 742.37 494.88C742.37 494.88 746.19 496.59 747.13 499.24C747.2 498.69 747.43 497.03 747.51 496.47Z" id="crKJcjzMe"></path><path d="M741.31 503.69C741.31 503.69 739.33 502.55 736.53 503.73C736.53 503.73 739.54 504.85 740.8 506.47C740.8 506.47 742.45 505.34 741.31 503.69" id="aTLzMtzNm"></path><path d="M751.38 518.14C751.38 518.14 749.95 519.89 749.34 522.82C749.34 522.82 751.94 521.15 755.23 519.78C755.23 519.78 753.3 517.09 751.38 518.14" id="bsaySQWqR"></path><path d="M784.48 499.45C784.48 499.45 788.17 499.05 790.13 500.97C790.13 500.97 788.04 501.61 784.32 503.8C784.32 503.8 782.53 501.15 784.48 499.45" id="aslI8CKIP"></path><path d="M763.23 467.79C763.23 467.79 765.52 498.01 765.16 499.08C764.8 500.15 757.18 500.22 751.05 496.52C744.92 492.81 744.95 499.13 748.07 501.89C751.19 504.64 759.71 504.44 759.71 504.44C759.71 504.44 751.01 508.24 744.15 504.12C737.29 500.01 737.86 511.13 747.41 510.27C756.96 509.42 763.09 506 763.09 506C763.09 506 756.97 512.98 752.26 515.69C747.56 518.4 752.13 523.35 756.97 519.09C761.81 514.84 766.8 507 768.58 505.21C770.36 503.43 777.25 509.06 783.25 504.64C789.25 500.22 786.83 497.51 780.49 499.44C774.14 501.36 770.01 500.93 769.08 498.01C768.16 495.09 768.15 467.09 768.15 467.09C767.16 467.23 764.21 467.65 763.23 467.79Z" id="faB976Bxg"></path><path d="M769.04 499.14C769.04 499.14 766.73 496.11 763.7 497.49C763.7 497.49 767.67 499.26 768.65 502.01C768.72 501.44 768.96 499.71 769.04 499.14Z" id="d24gVP4cbl"></path><path d="M762.59 506.64C762.59 506.64 760.54 505.45 757.63 506.68C757.63 506.68 760.75 507.84 762.07 509.53C762.07 509.53 763.78 508.35 762.59 506.64" id="ivuL24FHN"></path><path d="M807.48 502.23C807.48 502.23 811.31 501.82 813.34 503.81C813.34 503.81 811.17 504.48 807.31 506.75C807.31 506.75 805.45 504 807.48 502.23" id="c5bawMTg6"></path><path d="M785.39 469.32C785.39 469.32 787.76 500.74 787.39 501.85C787.02 502.96 779.09 503.04 772.72 499.18C766.35 495.33 766.38 501.9 769.62 504.77C772.87 507.63 781.73 507.42 781.73 507.42C781.73 507.42 772.68 511.37 765.55 507.09C758.42 502.82 759.01 514.38 768.94 513.49C778.87 512.6 785.24 509.04 785.24 509.04C785.24 509.04 778.87 516.3 773.98 519.12C769.09 521.93 773.84 527.08 778.88 522.65C783.91 518.23 789.1 510.08 790.95 508.22C792.8 506.37 799.96 512.23 806.2 507.63C812.44 503.03 809.92 500.22 803.32 502.22C796.73 504.22 792.43 503.78 791.46 500.74C790.5 497.7 790.5 468.59 790.5 468.59C789.47 468.74 786.41 469.18 785.39 469.32Z" id="a1b1j2ttKe"></path><path d="M787.73 281.58C788.58 281.99 803.45 289.41 800.42 303.44C800.17 304.65 799.85 305.7 799.46 306.56C797.29 311.81 793.32 311.58 789.19 309.62C785.68 307.95 782.05 305.03 779.29 303.1C772.72 298.49 769.29 305.63 769.29 305.63C769.29 305.63 743.4 274.55 716.32 294.7C716.32 294.7 714.63 290.2 714.17 282.81C713.65 273.84 714.95 260.59 723.41 245.99C728.48 237.27 733.63 232.41 737.99 230.42C746.94 226.32 752.48 234.17 746.66 245.19C747.44 244.02 760.37 225.11 782.6 220.13C805.53 215 799.69 236.17 772.81 252.6C772.81 252.6 794.55 244.32 807.76 261.66C820.95 278.98 802.26 284.98 787.73 281.58" id="c6x0SDqQe"></path><path d="M787.73 281.58C788.58 281.99 803.45 289.41 800.42 303.44C800.17 304.65 799.85 305.7 799.46 306.56C797.29 311.81 793.32 311.58 789.19 309.62C785.68 307.95 782.05 305.03 779.29 303.1C772.72 298.49 769.29 305.63 769.29 305.63C769.29 305.63 743.4 274.55 716.32 294.7C716.32 294.7 714.63 290.2 714.17 282.81C723.18 277.27 735.82 275.62 745.68 277.77C756.47 280.1 764.5 286.99 773.45 293.47C775.2 294.74 777.05 296.14 779.22 296.36C785.02 296.93 787.89 288.33 784.63 283.52C781.34 278.7 775.11 277.11 769.43 275.85C775.98 277.2 783.03 275.87 788.66 272.27C789.81 271.54 790.95 270.67 791.52 269.42C792.25 267.82 791.91 265.9 791.18 264.31C788.78 258.99 782.71 256.12 776.89 255.82C771.07 255.55 765.39 257.39 759.85 259.19C769.59 251.16 780.2 241.33 779.97 228.71C765.9 234.99 753.03 243.91 742.24 254.88C743.49 250.43 744.77 245.87 744.43 241.26C744.04 236.11 741.46 232.09 737.99 230.42C746.94 226.32 752.48 234.17 746.66 245.19C747.44 244.02 760.37 225.11 782.6 220.13C805.53 215 799.69 236.17 772.81 252.6C772.81 252.6 794.55 244.32 807.76 261.66C820.95 278.98 802.26 284.98 787.73 281.58" id="c23VTk5C90"></path><path d="M762.19 465.34C762.19 465.34 762.8 474.47 766.87 475.04C770.94 475.61 770.51 464.15 770.51 464.15C768.85 464.39 763.86 465.1 762.19 465.34Z" id="a38Xq3jdvD"></path><path d="M866.77 386.44C862.39 403.19 853.56 420.65 842.33 433.51C821.68 457.2 796.2 467.85 793.55 467.51C790.9 467.14 793.34 476.41 787.87 476.82C782.37 477.23 782.74 469.43 780 468.33C777.24 467.24 767.45 468.65 743.01 463.27C731.01 460.62 720.31 453.5 712.66 446.93C704.75 440.13 700.14 433.9 700.71 433.81C700.71 433.81 749.95 356.49 763.45 375.99C776.98 395.53 809.18 369.83 823.62 359.63C838.06 349.43 858.94 327.21 867.23 348.96C871.01 358.88 870.44 372.41 866.77 386.44" id="b13engTeVC"></path><path d="M866.77 386.44C864.46 385.76 862.14 385.51 859.76 386.19C854.97 387.61 852.19 392.45 848.95 396.25C844.91 400.98 839.5 404.54 833.55 406.36C838.13 405.38 841.88 412.59 839.32 417.02C836.58 421.7 830.67 423.25 825.38 424.36C815.66 426.42 805.89 428.47 795.99 428.93C782.14 429.57 768.15 427.01 755.42 421.51C755.35 426.17 750.88 429.86 746.27 430.57C741.67 431.26 737.01 429.66 732.74 427.77C733.63 431.28 731.72 435.27 728.43 436.78C725.12 438.28 720.86 437.1 718.78 434.13C722.09 444.06 718.39 446.43 712.66 446.93C704.75 440.13 700.14 433.9 700.71 433.81C700.71 433.81 749.95 356.49 763.45 375.99C776.98 395.53 809.18 369.83 823.62 359.63C838.06 349.43 858.94 327.21 867.23 348.96C871.01 358.88 870.44 372.41 866.77 386.44" id="e1NCuVf9fK"></path><path d="M785.27 397.67C779.47 402.58 769.55 390.64 769.55 390.62C772.72 401.78 775.75 409.15 768.68 412.61C758.64 417.54 752.09 405.5 749.76 400.13C751.79 405.68 755.67 419.16 746.84 422.77C737.06 426.76 730.65 412.73 729.18 409.15C730.32 412.57 734.27 425.6 727.31 428.52C720.85 431.23 715.72 419.64 713.94 414.99C715.68 420.21 719.53 435 709.13 438.44C709.01 438.49 708.9 438.51 708.79 438.56C689.99 444.22 672.37 354.64 692.65 315.48C699.25 302.78 707.48 294.01 716.15 288.63C734.25 277.38 754.28 280.82 765.42 293.97C781.89 313.45 769.43 342.77 766.92 356.28C766.74 357.22 766.6 358.15 766.46 359.06C766.44 359.16 766.44 359.27 766.42 359.36C766.35 359.86 766.31 360.34 766.26 360.82C765.76 369.17 771.94 379.05 781.12 380.51C790.95 382.06 791.09 392.76 785.27 397.67" id="e2gJRn1Mrf"></path><path d="M785.27 397.67C779.47 402.58 769.55 390.64 769.55 390.62C772.72 401.78 775.75 409.15 768.68 412.61C758.64 417.54 752.09 405.5 749.76 400.13C751.79 405.68 755.67 419.16 746.84 422.77C737.06 426.76 730.65 412.73 729.18 409.15C730.32 412.57 734.27 425.6 727.31 428.52C720.85 431.23 715.72 419.64 713.94 414.99C715.68 420.21 719.53 435 709.13 438.44C712.64 430.5 712.6 421.03 708.9 413.16C711.87 410.77 715.91 414.37 717.94 417.61C719.97 420.85 723.84 424.57 726.95 422.33C726.72 416.29 726.51 410.27 726.31 404.24C732.97 402.37 736.69 417.18 742.74 413.85C746.94 399.93 728.73 387.06 731.83 372.87C733.66 364.52 742.12 359.57 746.75 352.35C753.14 342.38 751.45 329.4 749.03 317.76C747.39 309.85 745.27 301.54 739.56 295.79C732.58 288.77 724.17 286.99 716.15 288.63C734.25 277.38 754.28 280.82 765.42 293.97C781.89 313.45 769.43 342.77 766.92 356.28C766.74 357.22 766.6 358.15 766.46 359.06C766.44 359.16 766.44 359.27 766.42 359.36C766.35 359.86 766.31 360.34 766.26 360.82C765.76 369.17 771.94 379.05 781.12 380.51C790.95 382.06 791.09 392.76 785.27 397.67" id="bdp07rHE9"></path><path d="M695.83 356.93C695.8 355.15 695.55 353.32 694.79 351.32C693.94 349.11 690.88 347.5 689.65 350.17C688.28 353.17 688.51 357.08 688.42 360.28C688.2 368.6 688.79 376.99 690.2 385.37C690.38 386.47 691.65 393.04 694.63 391.66C696.63 390.74 695.96 386.24 695.97 384.65C696 381.93 695.68 379.18 695.78 376.45C695.91 372.7 695.45 368.88 695.42 365.12C695.4 362.22 695.87 359.63 695.83 356.93" id="aKym74gf"></path><path d="M694.82 395.66C699.05 396.08 699.98 405.17 696.07 407.07C692.16 408.97 691.02 395.28 694.82 395.66" id="a8rOgnsF"></path><path d="M699.44 303.41C699.44 303.41 692.86 314.34 698.46 317.24C704.05 320.14 708.74 308.92 708.74 308.92" id="a3NjsOiOQ"></path><path d="M739.47 314.33C739.47 314.33 733.78 326.24 739.99 328.31C746.21 330.38 749.88 319.87 749.88 319.87" id="c7gjw4GUt"></path><path d="M718.55 336.2C716.5 344.99 704.93 347.02 700.32 345.83C697.88 345.19 692.38 343.25 687.57 340.83C683.25 338.69 679.51 336.16 679.01 333.9C678.83 333.08 678.81 332.26 678.96 331.52C679.38 329.13 681.43 327.17 685.19 325.75C687.13 325 689.53 324.43 692.4 324.02C695.12 323.63 697.88 323.45 700.46 323.54C701.32 323.56 702.17 323.61 702.99 323.7C708.88 324.27 713.44 326.37 714.04 330.54C714.97 337.07 718.55 336.2 718.55 336.2" id="anm5jjAgU"></path><path d="M718.55 336.19C716.49 344.99 704.94 347.01 700.32 345.83C695.7 344.62 680.08 338.72 679.02 333.9C678.83 333.07 678.81 332.26 678.96 331.53C680.74 334.32 687.34 335.98 695.26 338.79C704.21 341.93 713.01 338.83 718.55 336.19" id="c4cuou30CL"></path><path d="M751.55 342.26C751.13 345.06 746.41 346.68 741.01 345.87C735.61 345.07 731.57 342.14 731.99 339.34C732.41 336.54 737.13 334.92 742.53 335.73C747.93 336.54 751.97 339.46 751.55 342.26" id="kc5Awitwp"></path><path d="M702.99 323.7C702.78 324.7 702.26 325.71 701.53 326.44C700.12 327.87 698.11 328.61 696.15 329.15C692.52 330.18 688.75 330.84 684.99 331.11C683.91 331.2 682.48 330.96 682.36 329.88C682.32 329.42 682.57 328.99 682.82 328.63C683.5 327.58 684.3 326.62 685.19 325.75C687.13 325 689.53 324.43 692.4 324.02C695.12 323.63 697.88 323.45 700.46 323.54C701.33 323.56 702.17 323.61 702.99 323.7" id="czNMvhLoq"></path><path d="M718.55 336.2C716.5 344.99 704.93 347.02 700.32 345.83C697.88 345.19 692.38 343.25 687.57 340.83C691.63 340.29 695.69 339.83 697.95 339.01C700.94 337.91 703.95 336.45 705.75 333.83C707.56 331.23 707.67 327.21 705.2 325.21C703.88 324.16 702.17 323.86 700.46 323.54C707.53 323.72 713.35 325.78 714.04 330.54C714.97 337.07 718.55 336.2 718.55 336.2" id="a9NZPyhhs"></path><path d="M848.99 387.08C850.2 395.41 819.54 400.91 815.25 401.89C810.94 402.87 833.71 405.18 832.61 413.82C831.52 422.49 798.41 426.49 774.59 420.28C773.49 420.01 772.42 419.69 771.37 419.34C759.51 415.56 750.47 408.65 745.47 400.27C741.28 393.27 739.93 385.26 742.17 377.2C745.38 365.59 751.43 358.68 758.41 355.05C766.44 350.85 775.68 351.08 783.19 353.59C797.15 358.24 814.91 346.08 822.25 341.34C823.14 340.76 824.08 340.13 825.06 339.46C832.06 334.79 840.69 328.92 843.81 332.71C847.4 337 831.54 352.95 829.12 356.62C826.68 360.3 849.52 346.67 852.62 352.91C855.73 359.11 834.69 373.21 827.48 377.96C820.27 382.68 847.81 378.73 848.99 387.08" id="c4pOAdGL9"></path><path d="M774.79 373.96C771.16 376.38 767.24 378.34 763.11 379.74C766.49 379.46 769.87 379.21 773.24 378.94C774.82 378.8 776.71 378.84 777.56 380.17C778.92 382.36 775.93 384.66 773.49 385.53C768.02 387.49 762.54 389.46 757.06 391.44C761.79 390.94 766.67 393.43 769.07 397.51C769.61 398.42 770.02 399.61 769.52 400.54C769.04 401.39 768.02 401.71 767.08 401.89C760.99 403.12 754.69 402.01 748.58 400.89C747.55 400.7 746.52 400.5 745.47 400.27C741.28 393.27 739.93 385.26 742.17 377.2C745.38 365.59 751.43 358.68 758.41 355.05C759.3 354.84 760.15 354.68 760.97 354.55C762.7 354.27 764.71 354.18 766.03 355.34C768.34 357.4 766.63 361.32 764.23 363.26C761.83 365.2 758.71 366.66 757.68 369.56C763.16 368.49 768.61 367.42 774.07 366.32C774.98 366.14 775.96 365.98 776.82 366.32C778.33 366.96 778.77 369.01 778.15 370.52C777.51 372.02 776.14 373.07 774.79 373.96" id="c6HdUfNK5x"></path><path d="M848.99 387.08C850.2 395.41 819.54 400.91 815.25 401.89C810.94 402.87 833.71 405.18 832.61 413.82C831.52 422.49 798.41 426.49 774.59 420.28C773.49 420.01 772.42 419.69 771.37 419.34C779.49 419.6 787.66 418.27 795.31 415.47C799.48 413.96 804.07 411.15 804.2 406.73C804.39 400.86 797.06 398.19 791.27 397.28C800.07 396.89 808.86 395.32 817.28 392.63C820.86 391.46 825.01 387.2 822.07 384.85C820.97 383.96 819.4 384.07 817.99 384.21C811.85 384.89 805.71 385.58 799.57 386.26C810.36 382.61 819.6 374.65 824.83 364.54C817.78 365.64 810.98 368.28 805 372.21C811.03 366.34 816.96 360.39 822.82 354.36C825.04 352.08 827.32 349.64 828 346.54C828.6 343.87 827.43 340.61 825.06 339.46C832.06 334.79 840.69 328.92 843.81 332.71C847.4 337 831.54 352.95 829.12 356.62C826.68 360.3 849.52 346.67 852.62 352.91C855.73 359.11 834.69 373.21 827.48 377.96C820.27 382.68 847.81 378.73 848.99 387.08" id="b2VZT7grep"></path></defs><g><g><g><use xlink:href="#e4HRZLE132" opacity="1" fill="#00b689" fill-opacity="1"></use></g><g><use xlink:href="#a1uMfYFf2r" opacity="1" fill="#00b689" fill-opacity="1"></use></g><g><use xlink:href="#b2DS4PRu61" opacity="1" fill="#00b689" fill-opacity="1"></use></g><g><g><use xlink:href="#b1Dx2Oxbuo" opacity="1" fill="#000000" fill-opacity="0"></use><g><use xlink:href="#b1Dx2Oxbuo" opacity="1" fill-opacity="0" stroke="#853918" stroke-width="0.92" stroke-opacity="1"></use></g></g><g><use xlink:href="#h2eIsbKZd" opacity="1" fill="#000000" fill-opacity="0"></use><g><use xlink:href="#h2eIsbKZd" opacity="1" fill-opacity="0" stroke="#853918" stroke-width="0.92" stroke-opacity="1"></use></g></g><g><use xlink:href="#e3TOXaOp8" opacity="1" fill="#a25c39" fill-opacity="1"></use><g><use xlink:href="#e3TOXaOp8" opacity="1" fill-opacity="0" stroke="#000000" stroke-width="1" stroke-opacity="0"></use></g></g><g><use xlink:href="#c3oL15KKnC" opacity="1" fill="#ffd94a" fill-opacity="1"></use><g><use xlink:href="#c3oL15KKnC" opacity="1" fill-opacity="0" stroke="#000000" stroke-width="1" stroke-opacity="0"></use></g></g><g><use xlink:href="#g1q3cWUkXv" opacity="1" fill="#faffa6" fill-opacity="1"></use><g><use xlink:href="#g1q3cWUkXv" opacity="1" fill-opacity="0" stroke="#000000" stroke-width="1" stroke-opacity="0"></use></g></g><g><use xlink:href="#akaIwAfFe" opacity="1" fill="#faffa6" fill-opacity="1"></use><g><use xlink:href="#akaIwAfFe" opacity="1" fill-opacity="0" stroke="#000000" stroke-width="1" stroke-opacity="0"></use></g></g><g><use xlink:href="#a1UEDugVmh" opacity="1" fill="#a25c39" fill-opacity="1"></use><g><use xlink:href="#a1UEDugVmh" opacity="1" fill-opacity="0" stroke="#000000" stroke-width="1" stroke-opacity="0"></use></g></g><g><use xlink:href="#b2gNqNRHn" opacity="1" fill="#a25c39" fill-opacity="1"></use><g><use xlink:href="#b2gNqNRHn" opacity="1" fill-opacity="0" stroke="#000000" stroke-width="1" stroke-opacity="0"></use></g></g><g><use xlink:href="#a3DgoZsygm" opacity="1" fill="#3f0600" fill-opacity="1"></use><g><use xlink:href="#a3DgoZsygm" opacity="1" fill-opacity="0" stroke="#000000" stroke-width="1" stroke-opacity="0"></use></g></g><g><use xlink:href="#d5VMyxtfUp" opacity="1" fill="#000000" fill-opacity="0"></use><g><use xlink:href="#d5VMyxtfUp" opacity="1" fill-opacity="0" stroke="#853918" stroke-width="0.92" stroke-opacity="1"></use></g></g><g><use xlink:href="#aN60xD4ZV" opacity="1" fill="#000000" fill-opacity="0"></use><g><use xlink:href="#aN60xD4ZV" opacity="1" fill-opacity="0" stroke="#853918" stroke-width="0.92" stroke-opacity="1"></use></g></g><g><use xlink:href="#aFkt3PrSo" opacity="1" fill="#000000" fill-opacity="0"></use><g><use xlink:href="#aFkt3PrSo" opacity="1" fill-opacity="0" stroke="#823919" stroke-width="1.19" stroke-opacity="1"></use></g></g><g><use xlink:href="#b2iYhw42uN" opacity="1" fill="#000000" fill-opacity="0"></use><g><use xlink:href="#b2iYhw42uN" opacity="1" fill-opacity="0" stroke="#823919" stroke-width="1.19" stroke-opacity="1"></use></g></g><g><use xlink:href="#b3h2OAXOnn" opacity="1" fill="#000000" fill-opacity="0"></use><g><use xlink:href="#b3h2OAXOnn" opacity="1" fill-opacity="0" stroke="#823919" stroke-width="0.92" stroke-opacity="1"></use></g></g><g><use xlink:href="#f6qbA6TaD" opacity="1" fill="#ff76ad" fill-opacity="1"></use><g><use xlink:href="#f6qbA6TaD" opacity="1" fill-opacity="0" stroke="#000000" stroke-width="1" stroke-opacity="0"></use></g></g><g><use xlink:href="#g7ZamKnNR" opacity="1" fill="#ff76ad" fill-opacity="1"></use><g><use xlink:href="#g7ZamKnNR" opacity="1" fill-opacity="0" stroke="#000000" stroke-width="1" stroke-opacity="0"></use></g></g><g><use xlink:href="#c7fgmBKAmR" opacity="1" fill="#c6dadb" fill-opacity="1"></use><g><use xlink:href="#c7fgmBKAmR" opacity="1" fill-opacity="0" stroke="#000000" stroke-width="1" stroke-opacity="0"></use></g></g><g><use xlink:href="#ddIILnHx4" opacity="1" fill="#006858" fill-opacity="1"></use><g><use xlink:href="#ddIILnHx4" opacity="1" fill-opacity="0" stroke="#000000" stroke-width="1" stroke-opacity="0"></use></g></g><g><use xlink:href="#aalUn8I3Vs" opacity="1" fill="#ffffff" fill-opacity="1"></use><g><use xlink:href="#aalUn8I3Vs" opacity="1" fill-opacity="0" stroke="#000000" stroke-width="1" stroke-opacity="0"></use></g></g><g><use xlink:href="#a4d7lKSOgs" opacity="1" fill="#c6dadb" fill-opacity="1"></use><g><use xlink:href="#a4d7lKSOgs" opacity="1" fill-opacity="0" stroke="#000000" stroke-width="1" stroke-opacity="0"></use></g></g><g><use xlink:href="#fZX1o5xHl" opacity="1" fill="#ffffff" fill-opacity="1"></use><g><use xlink:href="#fZX1o5xHl" opacity="1" fill-opacity="0" stroke="#000000" stroke-width="1" stroke-opacity="0"></use></g></g><g><use xlink:href="#c59Q27hCK" opacity="1" fill="#006858" fill-opacity="1"></use><g><use xlink:href="#c59Q27hCK" opacity="1" fill-opacity="0" stroke="#000000" stroke-width="1" stroke-opacity="0"></use></g></g><g><use xlink:href="#c1Dxssw3A" opacity="1" fill="#000000" fill-opacity="0"></use><g><use xlink:href="#c1Dxssw3A" opacity="1" fill-opacity="0" stroke="#853918" stroke-width="0.92" stroke-opacity="1"></use></g></g><g><use xlink:href="#b2yIZtRqoc" opacity="1" fill="#853918" fill-opacity="1"></use><g><use xlink:href="#b2yIZtRqoc" opacity="1" fill-opacity="0" stroke="#000000" stroke-width="1" stroke-opacity="0"></use></g></g><g><use xlink:href="#dGojdeE83" opacity="1" fill="#000000" fill-opacity="0"></use><g><use xlink:href="#dGojdeE83" opacity="1" fill-opacity="0" stroke="#853918" stroke-width="0.92" stroke-opacity="1"></use></g></g><g><use xlink:href="#b4Zwj7A5M" opacity="1" fill="#853918" fill-opacity="1"></use><g><use xlink:href="#b4Zwj7A5M" opacity="1" fill-opacity="0" stroke="#000000" stroke-width="1" stroke-opacity="0"></use></g></g></g><g><g><use xlink:href="#f3kodd1XH" opacity="1" fill="#ff9500" fill-opacity="1"></use><g><use xlink:href="#f3kodd1XH" opacity="1" fill-opacity="0" stroke="#000000" stroke-width="1" stroke-opacity="0"></use></g></g><g><use xlink:href="#ayuUFAAEh" opacity="1" fill="#da387f" fill-opacity="1"></use><g><use xlink:href="#ayuUFAAEh" opacity="1" fill-opacity="0" stroke="#000000" stroke-width="1" stroke-opacity="0"></use></g></g><g><use xlink:href="#e88bJ3s6c" opacity="1" fill="#9c4520" fill-opacity="1"></use><g><use xlink:href="#e88bJ3s6c" opacity="1" fill-opacity="0" stroke="#000000" stroke-width="1" stroke-opacity="0"></use></g></g><g><use xlink:href="#bAXIZweY8" opacity="1" fill="#ffd164" fill-opacity="1"></use><g><use xlink:href="#bAXIZweY8" opacity="1" fill-opacity="0" stroke="#000000" stroke-width="1" stroke-opacity="0"></use></g></g><g><use xlink:href="#c71FAY31ii" opacity="1" fill="#ea7c03" fill-opacity="1"></use><g><use xlink:href="#c71FAY31ii" opacity="1" fill-opacity="0" stroke="#000000" stroke-width="1" stroke-opacity="0"></use></g></g><g><use xlink:href="#b2p5EjL7Ou" opacity="1" fill="#9c4520" fill-opacity="1"></use><g><use xlink:href="#b2p5EjL7Ou" opacity="1" fill-opacity="0" stroke="#000000" stroke-width="1" stroke-opacity="0"></use></g></g><g><use xlink:href="#c1PBG9L8ct" opacity="1" fill="#851b03" fill-opacity="1"></use><g><use xlink:href="#c1PBG9L8ct" opacity="1" fill-opacity="0" stroke="#000000" stroke-width="1" stroke-opacity="0"></use></g></g><g><use xlink:href="#eaWblDQyw" opacity="1" fill="#ea7c03" fill-opacity="1"></use><g><use xlink:href="#eaWblDQyw" opacity="1" fill-opacity="0" stroke="#000000" stroke-width="1" stroke-opacity="0"></use></g></g><g><use xlink:href="#e1qdmXwBjG" opacity="1" fill="#9c4520" fill-opacity="1"></use><g><use xlink:href="#e1qdmXwBjG" opacity="1" fill-opacity="0" stroke="#000000" stroke-width="1" stroke-opacity="0"></use></g></g><g><use xlink:href="#bSogN0MyQ" opacity="1" fill="#851b03" fill-opacity="1"></use><g><use xlink:href="#bSogN0MyQ" opacity="1" fill-opacity="0" stroke="#000000" stroke-width="1" stroke-opacity="0"></use></g></g><g><use xlink:href="#b2X58tQae5" opacity="1" fill="#ff9500" fill-opacity="1"></use><g><use xlink:href="#b2X58tQae5" opacity="1" fill-opacity="0" stroke="#000000" stroke-width="1" stroke-opacity="0"></use></g></g><g><use xlink:href="#g1MT11fhfa" opacity="1" fill="#faffa6" fill-opacity="1"></use><g><use xlink:href="#g1MT11fhfa" opacity="1" fill-opacity="0" stroke="#000000" stroke-width="1" stroke-opacity="0"></use></g></g><g><use xlink:href="#ib823YTA4" opacity="1" fill="#faffa6" fill-opacity="1"></use><g><use xlink:href="#ib823YTA4" opacity="1" fill-opacity="0" stroke="#000000" stroke-width="1" stroke-opacity="0"></use></g></g><g><use xlink:href="#b9MUBF51W" opacity="1" fill="#000000" fill-opacity="0"></use><g><use xlink:href="#b9MUBF51W" opacity="1" fill-opacity="0" stroke="#853918" stroke-width="1.19" stroke-opacity="1"></use></g></g><g><use xlink:href="#bkUj9LJH1" opacity="1" fill="#9c4520" fill-opacity="1"></use><g><use xlink:href="#bkUj9LJH1" opacity="1" fill-opacity="0" stroke="#000000" stroke-width="1" stroke-opacity="0"></use></g></g><g><use xlink:href="#a3WYk1sxwY" opacity="1" fill="#9c4520" fill-opacity="1"></use><g><use xlink:href="#a3WYk1sxwY" opacity="1" fill-opacity="0" stroke="#000000" stroke-width="1" stroke-opacity="0"></use></g></g><g><use xlink:href="#aBA6E0wuq" opacity="1" fill="#faffa6" fill-opacity="1"></use><g><use xlink:href="#aBA6E0wuq" opacity="1" fill-opacity="0" stroke="#000000" stroke-width="1" stroke-opacity="0"></use></g></g><g><use xlink:href="#a4ZSFdPhoV" opacity="1" fill="#000000" fill-opacity="0"></use><g><use xlink:href="#a4ZSFdPhoV" opacity="1" fill-opacity="0" stroke="#853918" stroke-width="0.92" stroke-opacity="1"></use></g></g><g><use xlink:href="#b6yZo2bFFf" opacity="1" fill="#9c4520" fill-opacity="1"></use><g><use xlink:href="#b6yZo2bFFf" opacity="1" fill-opacity="0" stroke="#000000" stroke-width="1" stroke-opacity="0"></use></g></g><g><use xlink:href="#amzr3C5mM" opacity="1" fill="#851b03" fill-opacity="1"></use><g><use xlink:href="#amzr3C5mM" opacity="1" fill-opacity="0" stroke="#000000" stroke-width="1" stroke-opacity="0"></use></g></g><g><use xlink:href="#b2rqFjC8Qz" opacity="1" fill="#ffd94a" fill-opacity="1"></use><g><use xlink:href="#b2rqFjC8Qz" opacity="1" fill-opacity="0" stroke="#000000" stroke-width="1" stroke-opacity="0"></use></g></g><g><use xlink:href="#a1bMKw1KxK" opacity="1" fill="#da387f" fill-opacity="1"></use><g><use xlink:href="#a1bMKw1KxK" opacity="1" fill-opacity="0" stroke="#000000" stroke-width="1" stroke-opacity="0"></use></g></g><g><use xlink:href="#h3gyyGyfP5" opacity="1" fill="#da387f" fill-opacity="1"></use><g><use xlink:href="#h3gyyGyfP5" opacity="1" fill-opacity="0" stroke="#000000" stroke-width="1" stroke-opacity="0"></use></g></g><g><use xlink:href="#n1SurExC7d" opacity="1" fill="#9c4520" fill-opacity="1"></use><g><use xlink:href="#n1SurExC7d" opacity="1" fill-opacity="0" stroke="#000000" stroke-width="1" stroke-opacity="0"></use></g></g><g><use xlink:href="#g3Z4gwrOlh" opacity="1" fill="#9c4520" fill-opacity="1"></use><g><use xlink:href="#g3Z4gwrOlh" opacity="1" fill-opacity="0" stroke="#000000" stroke-width="1" stroke-opacity="0"></use></g></g><g><use xlink:href="#g43TMfhowI" opacity="1" fill="#9c4520" fill-opacity="1"></use><g><use xlink:href="#g43TMfhowI" opacity="1" fill-opacity="0" stroke="#000000" stroke-width="1" stroke-opacity="0"></use></g></g><g><use xlink:href="#a8B13FbrX" opacity="1" fill="#9c4520" fill-opacity="1"></use><g><use xlink:href="#a8B13FbrX" opacity="1" fill-opacity="0" stroke="#000000" stroke-width="1" stroke-opacity="0"></use></g></g><g><use xlink:href="#aG6kepYeT" opacity="1" fill="#3f0600" fill-opacity="1"></use><g><use xlink:href="#aG6kepYeT" opacity="1" fill-opacity="0" stroke="#000000" stroke-width="1" stroke-opacity="0"></use></g></g><g><use xlink:href="#f2kY5tmTI" opacity="1" fill="#9c4520" fill-opacity="1"></use><g><use xlink:href="#f2kY5tmTI" opacity="1" fill-opacity="0" stroke="#000000" stroke-width="1" stroke-opacity="0"></use></g></g><g><use xlink:href="#bf8wkbLsT" opacity="1" fill="#ffd164" fill-opacity="1"></use><g><use xlink:href="#bf8wkbLsT" opacity="1" fill-opacity="0" stroke="#000000" stroke-width="1" stroke-opacity="0"></use></g></g><g><use xlink:href="#f2bUNhJ3F0" opacity="1" fill="#3f0600" fill-opacity="1"></use><g><use xlink:href="#f2bUNhJ3F0" opacity="1" fill-opacity="0" stroke="#000000" stroke-width="1" stroke-opacity="0"></use></g></g><g><use xlink:href="#f1v0VihYa3" opacity="1" fill="#ffd164" fill-opacity="1"></use><g><use xlink:href="#f1v0VihYa3" opacity="1" fill-opacity="0" stroke="#000000" stroke-width="1" stroke-opacity="0"></use></g></g></g><g><g><use xlink:href="#bzM3bltir" opacity="1" fill="#90dc56" fill-opacity="1"></use><g><use xlink:href="#bzM3bltir" opacity="1" fill-opacity="0" stroke="#000000" stroke-width="1" stroke-opacity="0"></use></g></g><g><use xlink:href="#b1r877gWSw" opacity="1" fill="#90dc56" fill-opacity="1"></use><g><use xlink:href="#b1r877gWSw" opacity="1" fill-opacity="0" stroke="#000000" stroke-width="1" stroke-opacity="0"></use></g></g><g><use xlink:href="#b4sPesjrjA" opacity="1" fill="#90dc56" fill-opacity="1"></use><g><use xlink:href="#b4sPesjrjA" opacity="1" fill-opacity="0" stroke="#000000" stroke-width="1" stroke-opacity="0"></use></g></g><g><use xlink:href="#gwBF6Eva" opacity="1" fill="#90dc56" fill-opacity="1"></use><g><use xlink:href="#gwBF6Eva" opacity="1" fill-opacity="0" stroke="#000000" stroke-width="1" stroke-opacity="0"></use></g></g><g><use xlink:href="#bh9xpf3bB" opacity="1" fill="#90dc56" fill-opacity="1"></use><g><use xlink:href="#bh9xpf3bB" opacity="1" fill-opacity="0" stroke="#000000" stroke-width="1" stroke-opacity="0"></use></g></g><g><use xlink:href="#b8lrsLhqp" opacity="1" fill="#008f00" fill-opacity="1"></use><g><use xlink:href="#b8lrsLhqp" opacity="1" fill-opacity="0" stroke="#000000" stroke-width="1" stroke-opacity="0"></use></g></g><g><use xlink:href="#eXS810CAK" opacity="1" fill="#008f00" fill-opacity="1"></use><g><use xlink:href="#eXS810CAK" opacity="1" fill-opacity="0" stroke="#000000" stroke-width="1" stroke-opacity="0"></use></g></g><g><use xlink:href="#dOP5oGDW5" opacity="1" fill="#008f00" fill-opacity="1"></use><g><use xlink:href="#dOP5oGDW5" opacity="1" fill-opacity="0" stroke="#000000" stroke-width="1" stroke-opacity="0"></use></g></g><g><use xlink:href="#a2djv1NJq8" opacity="1" fill="#008f00" fill-opacity="1"></use><g><use xlink:href="#a2djv1NJq8" opacity="1" fill-opacity="0" stroke="#000000" stroke-width="1" stroke-opacity="0"></use></g></g><g><use xlink:href="#agzNCJwdw" opacity="1" fill="#008f00" fill-opacity="1"></use><g><use xlink:href="#agzNCJwdw" opacity="1" fill-opacity="0" stroke="#000000" stroke-width="1" stroke-opacity="0"></use></g></g><g><use xlink:href="#a3aiw4fnVM" opacity="1" fill="#008f00" fill-opacity="1"></use><g><use xlink:href="#a3aiw4fnVM" opacity="1" fill-opacity="0" stroke="#000000" stroke-width="1" stroke-opacity="0"></use></g></g><g><use xlink:href="#d3sfyAYj0" opacity="1" fill="#ecff5f" fill-opacity="1"></use><g><use xlink:href="#d3sfyAYj0" opacity="1" fill-opacity="0" stroke="#000000" stroke-width="1" stroke-opacity="0"></use></g></g><g><use xlink:href="#flBH82eMY" opacity="1" fill="#ecff5f" fill-opacity="1"></use><g><use xlink:href="#flBH82eMY" opacity="1" fill-opacity="0" stroke="#000000" stroke-width="1" stroke-opacity="0"></use></g></g><g><use xlink:href="#bgpCvEN9" opacity="1" fill="#ecff5f" fill-opacity="1"></use><g><use xlink:href="#bgpCvEN9" opacity="1" fill-opacity="0" stroke="#000000" stroke-width="1" stroke-opacity="0"></use></g></g><g><use xlink:href="#abxQ8SlTK" opacity="1" fill="#ecff5f" fill-opacity="1"></use><g><use xlink:href="#abxQ8SlTK" opacity="1" fill-opacity="0" stroke="#000000" stroke-width="1" stroke-opacity="0"></use></g></g><g><use xlink:href="#c4QHKQnq7R" opacity="1" fill="#ecff5f" fill-opacity="1"></use><g><use xlink:href="#c4QHKQnq7R" opacity="1" fill-opacity="0" stroke="#000000" stroke-width="1" stroke-opacity="0"></use></g></g><g><use xlink:href="#crKJcjzMe" opacity="1" fill="#ff926b" fill-opacity="1"></use><g><use xlink:href="#crKJcjzMe" opacity="1" fill-opacity="0" stroke="#000000" stroke-width="1" stroke-opacity="0"></use></g></g><g><use xlink:href="#aTLzMtzNm" opacity="1" fill="#ff926b" fill-opacity="1"></use><g><use xlink:href="#aTLzMtzNm" opacity="1" fill-opacity="0" stroke="#000000" stroke-width="1" stroke-opacity="0"></use></g></g><g><use xlink:href="#bsaySQWqR" opacity="1" fill="#ff926b" fill-opacity="1"></use><g><use xlink:href="#bsaySQWqR" opacity="1" fill-opacity="0" stroke="#000000" stroke-width="1" stroke-opacity="0"></use></g></g><g><use xlink:href="#aslI8CKIP" opacity="1" fill="#ff926b" fill-opacity="1"></use><g><use xlink:href="#aslI8CKIP" opacity="1" fill-opacity="0" stroke="#000000" stroke-width="1" stroke-opacity="0"></use></g></g><g><use xlink:href="#faB976Bxg" opacity="1" fill="#dcfd23" fill-opacity="1"></use><g><use xlink:href="#faB976Bxg" opacity="1" fill-opacity="0" stroke="#000000" stroke-width="1" stroke-opacity="0"></use></g></g><g><use xlink:href="#d24gVP4cbl" opacity="1" fill="#ff926b" fill-opacity="1"></use><g><use xlink:href="#d24gVP4cbl" opacity="1" fill-opacity="0" stroke="#000000" stroke-width="1" stroke-opacity="0"></use></g></g><g><use xlink:href="#ivuL24FHN" opacity="1" fill="#ff926b" fill-opacity="1"></use><g><use xlink:href="#ivuL24FHN" opacity="1" fill-opacity="0" stroke="#000000" stroke-width="1" stroke-opacity="0"></use></g></g><g><use xlink:href="#c5bawMTg6" opacity="1" fill="#ff926b" fill-opacity="1"></use><g><use xlink:href="#c5bawMTg6" opacity="1" fill-opacity="0" stroke="#000000" stroke-width="1" stroke-opacity="0"></use></g></g><g><use xlink:href="#a1b1j2ttKe" opacity="1" fill="#dcfd23" fill-opacity="1"></use><g><use xlink:href="#a1b1j2ttKe" opacity="1" fill-opacity="0" stroke="#000000" stroke-width="1" stroke-opacity="0"></use></g></g><g><use xlink:href="#c6x0SDqQe" opacity="1" fill="#ff926b" fill-opacity="1"></use><g><use xlink:href="#c6x0SDqQe" opacity="1" fill-opacity="0" stroke="#000000" stroke-width="1" stroke-opacity="0"></use></g></g><g><use xlink:href="#c23VTk5C90" opacity="1" fill="#c04210" fill-opacity="1"></use><g><use xlink:href="#c23VTk5C90" opacity="1" fill-opacity="0" stroke="#000000" stroke-width="1" stroke-opacity="0"></use></g></g><g><use xlink:href="#a38Xq3jdvD" opacity="1" fill="#e67d00" fill-opacity="1"></use><g><use xlink:href="#a38Xq3jdvD" opacity="1" fill-opacity="0" stroke="#000000" stroke-width="1" stroke-opacity="0"></use></g></g><g><use xlink:href="#b13engTeVC" opacity="1" fill="#ffaa00" fill-opacity="1"></use><g><use xlink:href="#b13engTeVC" opacity="1" fill-opacity="0" stroke="#000000" stroke-width="1" stroke-opacity="0"></use></g></g><g><use xlink:href="#e1NCuVf9fK" opacity="1" fill="#932d0c" fill-opacity="1"></use><g><use xlink:href="#e1NCuVf9fK" opacity="1" fill-opacity="0" stroke="#000000" stroke-width="1" stroke-opacity="0"></use></g></g><g><use xlink:href="#e2gJRn1Mrf" opacity="1" fill="#00deb7" fill-opacity="1"></use><g><use xlink:href="#e2gJRn1Mrf" opacity="1" fill-opacity="0" stroke="#000000" stroke-width="1" stroke-opacity="0"></use></g></g><g><use xlink:href="#bdp07rHE9" opacity="1" fill="#006858" fill-opacity="1"></use><g><use xlink:href="#bdp07rHE9" opacity="1" fill-opacity="0" stroke="#000000" stroke-width="1" stroke-opacity="0"></use></g></g><g><use xlink:href="#aKym74gf" opacity="1" fill="#ffffff" fill-opacity="1"></use><g><use xlink:href="#aKym74gf" opacity="1" fill-opacity="0" stroke="#000000" stroke-width="1" stroke-opacity="0"></use></g></g><g><use xlink:href="#a8rOgnsF" opacity="1" fill="#ffffff" fill-opacity="1"></use><g><use xlink:href="#a8rOgnsF" opacity="1" fill-opacity="0" stroke="#000000" stroke-width="1" stroke-opacity="0"></use></g></g><g><use xlink:href="#a3NjsOiOQ" opacity="1" fill="#000000" fill-opacity="0"></use><g><use xlink:href="#a3NjsOiOQ" opacity="1" fill-opacity="0" stroke="#006d57" stroke-width="0.92" stroke-opacity="1"></use></g></g><g><use xlink:href="#c7gjw4GUt" opacity="1" fill="#000000" fill-opacity="0"></use><g><use xlink:href="#c7gjw4GUt" opacity="1" fill-opacity="0" stroke="#006d57" stroke-width="0.92" stroke-opacity="1"></use></g></g><g><use xlink:href="#anm5jjAgU" opacity="1" fill="#ffc500" fill-opacity="1"></use><g><use xlink:href="#anm5jjAgU" opacity="1" fill-opacity="0" stroke="#000000" stroke-width="1" stroke-opacity="0"></use></g></g><g><use xlink:href="#c4cuou30CL" opacity="1" fill="#ffaa00" fill-opacity="1"></use><g><use xlink:href="#c4cuou30CL" opacity="1" fill-opacity="0" stroke="#000000" stroke-width="1" stroke-opacity="0"></use></g></g><g><use xlink:href="#kc5Awitwp" opacity="1" fill="#ffa0c7" fill-opacity="1"></use><g><use xlink:href="#kc5Awitwp" opacity="1" fill-opacity="0" stroke="#000000" stroke-width="1" stroke-opacity="0"></use></g></g><g><use xlink:href="#czNMvhLoq" opacity="1" fill="#ecff5f" fill-opacity="1"></use><g><use xlink:href="#czNMvhLoq" opacity="1" fill-opacity="0" stroke="#000000" stroke-width="1" stroke-opacity="0"></use></g></g><g><use xlink:href="#a9NZPyhhs" opacity="1" fill="#c04210" fill-opacity="1"></use><g><use xlink:href="#a9NZPyhhs" opacity="1" fill-opacity="0" stroke="#000000" stroke-width="1" stroke-opacity="0"></use></g></g><g><use xlink:href="#c4pOAdGL9" opacity="1" fill="#dcfd23" fill-opacity="1"></use><g><use xlink:href="#c4pOAdGL9" opacity="1" fill-opacity="0" stroke="#000000" stroke-width="1" stroke-opacity="0"></use></g></g><g><use xlink:href="#c6HdUfNK5x" opacity="1" fill="#faffa6" fill-opacity="1"></use><g><use xlink:href="#c6HdUfNK5x" opacity="1" fill-opacity="0" stroke="#000000" stroke-width="1" stroke-opacity="0"></use></g></g><g><use xlink:href="#b2VZT7grep" opacity="1" fill="#008f00" fill-opacity="1"></use><g><use xlink:href="#b2VZT7grep" opacity="1" fill-opacity="0" stroke="#000000" stroke-width="1" stroke-opacity="0"></use></g></g></g></g></g></svg>